<svg width="42" height="42" viewBox="0 0 42 42" fill="none" xmlns="http://www.w3.org/2000/svg">
<g id="Paper-Add">
<g id="Vector">
<path fill-rule="evenodd" clip-rule="evenodd" d="M14.2258 26.3846C14.2258 25.6412 14.8324 25.0385 15.5806 25.0385H22.8065C23.5547 25.0385 24.1613 25.6412 24.1613 26.3846C24.1613 27.1281 23.5547 27.7308 22.8065 27.7308H15.5806C14.8324 27.7308 14.2258 27.1281 14.2258 26.3846Z" fill="currentColor"/>
<path fill-rule="evenodd" clip-rule="evenodd" d="M19.1935 31.3205C18.4453 31.3205 17.8387 30.7178 17.8387 29.9744V22.7949C17.8387 22.0514 18.4453 21.4487 19.1935 21.4487C19.9418 21.4487 20.5484 22.0514 20.5484 22.7949V29.9744C20.5484 30.7178 19.9418 31.3205 19.1935 31.3205Z" fill="currentColor"/>
<path fill-rule="evenodd" clip-rule="evenodd" d="M21 6.19231C18.3315 6.19231 14.7482 6.48519 12.242 6.72822C11.202 6.82907 10.3905 7.65292 10.31 8.69738C10.0607 11.9307 9.70968 17.1724 9.70968 21C9.70968 24.8276 10.0607 30.0693 10.31 33.3026C10.3905 34.3471 11.202 35.1709 12.242 35.2718C14.7482 35.5148 18.3315 35.8077 21 35.8077C23.6685 35.8077 27.2518 35.5148 29.758 35.2718C30.798 35.1709 31.6095 34.3471 31.69 33.3026C31.9393 30.0693 32.2903 24.8276 32.2903 21C32.2903 19.7657 32.2537 18.3813 32.1956 16.9615H26.4208L26.4194 15.6154L26.4194 14.2692H32.0617C31.7279 10.0033 28.399 6.60538 24.1613 6.29289V12.0256C24.1613 13.2647 25.1723 14.2692 26.4194 14.2692L26.4194 15.6154L26.4208 16.9615C23.6772 16.9615 21.4516 14.7517 21.4516 12.0256V6.19495C21.2983 6.19321 21.1477 6.19231 21 6.19231ZM22.8496 3.53621C22.2094 3.51323 21.5865 3.5 21 3.5C18.1887 3.5 14.4916 3.80497 11.9788 4.04865C9.61991 4.27739 7.78846 6.15308 7.6082 8.49179C7.35889 11.7262 7 17.0592 7 21C7 24.9408 7.35889 30.2738 7.6082 33.5082C7.78846 35.8469 9.61991 37.7226 11.9788 37.9514C14.4916 38.195 18.1887 38.5 21 38.5C23.8113 38.5 27.5084 38.195 30.0212 37.9514C32.3801 37.7226 34.2115 35.8469 34.3918 33.5082C34.6411 30.2738 35 24.9408 35 21C35 19.3408 34.9365 17.4398 34.8449 15.5579C34.8446 15.5521 34.8443 15.5463 34.844 15.5405C34.8243 15.1356 34.8032 14.7317 34.7812 14.3313C34.466 8.59248 29.9561 3.898 24.1198 3.59272C23.6979 3.57065 23.278 3.55169 22.8653 3.53678" fill="currentColor"/>
</g>
</g>
</svg>
