<svg width="56" height="56" viewBox="0 0 56 56" fill="none" xmlns="http://www.w3.org/2000/svg">
<rect width="56" height="56" rx="10" fill="#F5F5F5"/>
<path fill-rule="evenodd" clip-rule="evenodd" d="M27.3253 39.4196C26.9096 39.7832 26.2779 39.7411 25.9142 39.3255L16.5808 28.6588C16.2509 28.2818 16.2509 27.7188 16.5808 27.3418L25.9142 16.6751C26.2779 16.2595 26.9096 16.2174 27.3253 16.5811C27.7409 16.9448 27.783 17.5765 27.4193 17.9922L19.5372 27.0003L38.6667 27.0003C39.219 27.0003 39.6667 27.448 39.6667 28.0003C39.6667 28.5526 39.219 29.0003 38.6667 29.0003L19.5372 29.0003L27.4193 38.0085C27.783 38.4241 27.7409 39.0559 27.3253 39.4196Z" fill="#CCCCCC"/>
</svg>
