<svg width="18" height="18" viewBox="0 0 18 18" fill="none" xmlns="http://www.w3.org/2000/svg">
<path fill-rule="evenodd" clip-rule="evenodd" d="M9 2.65385C5.49512 2.65385 2.65385 5.49512 2.65385 9C2.65385 12.5049 5.49512 15.3462 9 15.3462C12.5049 15.3462 15.3462 12.5049 15.3462 9C15.3462 5.49512 12.5049 2.65385 9 2.65385ZM1.5 9C1.5 4.85786 4.85786 1.5 9 1.5C13.1421 1.5 16.5 4.85786 16.5 9C16.5 13.1421 13.1421 16.5 9 16.5C4.85786 16.5 1.5 13.1421 1.5 9Z" fill="currentColor"/>
<path fill-rule="evenodd" clip-rule="evenodd" d="M9 5.73077C9.31863 5.73077 9.57692 5.98907 9.57692 6.30769V9.38462C9.57692 9.70324 9.31863 9.96154 9 9.96154C8.68138 9.96154 8.42308 9.70324 8.42308 9.38462V6.30769C8.42308 5.98907 8.68138 5.73077 9 5.73077Z" fill="currentColor"/>
<path d="M9.76923 11.6923C9.76923 12.1171 9.42484 12.4615 9 12.4615C8.57517 12.4615 8.23077 12.1171 8.23077 11.6923C8.23077 11.2675 8.57517 10.9231 9 10.9231C9.42484 10.9231 9.76923 11.2675 9.76923 11.6923Z" fill="currentColor"/>
</svg>
