<svg width="25" height="24" viewBox="0 0 25 24" fill="none" xmlns="http://www.w3.org/2000/svg">
<path d="M17.5 11C17.5 8.66667 15.8333 7 13.5 7" stroke="#EEF2F8" stroke-width="2" stroke-linecap="round" stroke-linejoin="round"/>
<path d="M21.5 11C21.5 6.2 18.3 3 13.5 3" stroke="#EEF2F8" stroke-width="2" stroke-linecap="round" stroke-linejoin="round"/>
<path fill-rule="evenodd" clip-rule="evenodd" d="M4.45558 3.15739C5.08146 2.6242 6.05041 1.9665 7.09608 2.00133L7.12674 2.00235L7.15724 2.00562C7.73704 2.06783 8.26339 2.3572 8.71438 2.79274L8.71719 2.79545C9.02595 3.09645 9.57093 3.73328 10.0448 4.3507C10.2849 4.66357 10.5195 4.98803 10.7053 5.27852C10.798 5.42346 10.8848 5.56958 10.9553 5.708C11.0188 5.83283 11.0951 6.00068 11.1326 6.17942C11.3297 7.09504 10.9165 7.81624 10.6841 8.22202C10.675 8.23789 10.6661 8.25328 10.6576 8.26818L10.6385 8.30181C10.5709 8.41863 10.4846 8.54897 10.4097 8.66215L10.4015 8.67465C10.244 8.91274 10.1071 9.12267 10.0195 9.30987C9.9943 9.36387 9.97864 9.40483 9.96922 9.43386C10.2866 10.1853 10.7315 10.9299 11.2704 11.6267C11.9197 12.4007 12.919 13.3608 13.4271 13.7187C13.9414 14.0809 14.4724 14.3843 15.0121 14.6175C15.0457 14.6076 15.0949 14.5898 15.161 14.5592C15.3577 14.4683 15.5755 14.3276 15.815 14.1709L15.8262 14.1636C15.9317 14.0945 16.0512 14.0163 16.1579 13.9542L16.1637 13.9508L16.1981 13.9315C16.2124 13.9234 16.2272 13.9151 16.2423 13.9066C16.655 13.6738 17.3757 13.2673 18.3001 13.4611L18.3021 13.4616L18.2981 13.4607L18.3001 13.4611C18.476 13.4975 18.6426 13.5718 18.7673 13.634C18.9046 13.7025 19.0502 13.7868 19.1951 13.8771C19.4857 14.0582 19.8111 14.287 20.1258 14.5216C20.7435 14.9824 21.3858 15.5158 21.6929 15.8255L21.6903 15.8229L21.6956 15.8282L21.6929 15.8255C22.1297 16.26 22.4479 16.7948 22.4962 17.4186L22.4973 17.4334L22.498 17.4483C22.5408 18.4747 21.9001 19.4172 21.3729 20.0302C20.8386 20.6514 20.2284 21.1519 19.9094 21.3534C19.8287 21.4044 19.9659 21.313 19.9094 21.3534C18.6413 22.2604 17.0557 22.149 15.4296 21.4173C15.3911 21.4 15.4625 21.4307 15.4296 21.4173C13.6911 20.7091 11.6882 19.267 9.80902 17.5836C9.13817 16.9826 7.84573 15.7158 7.4387 15.2499C7.44144 15.2529 7.44419 15.2559 7.44694 15.2588L7.42978 15.2397C7.43271 15.243 7.43568 15.2464 7.4387 15.2499C5.54314 13.1952 3.89514 10.9383 3.09606 9.04644C3.07831 9.00443 3.11251 9.0815 3.09606 9.04644C2.71034 8.2243 2.5 7.41738 2.5 6.65492C2.5 5.89527 2.71481 5.19485 3.14075 4.59017C3.13151 4.60512 3.12288 4.61958 3.11491 4.63353L3.16193 4.56043C3.15481 4.57032 3.14775 4.58024 3.14075 4.59017C3.24064 4.42865 3.41209 4.21153 3.60358 3.99504C3.82632 3.7432 4.11847 3.44456 4.45558 3.15739ZM14.9671 14.6278L14.9695 14.6276L14.9671 14.6278ZM9.95677 9.48209L9.95702 9.48014L9.95677 9.48209ZM4.56281 5.45943C4.56127 5.46173 4.56173 5.46085 4.56173 5.46085L4.54013 5.49863L4.51472 5.53395C4.28774 5.84935 4.16667 6.21654 4.16667 6.65492C4.16667 7.11686 4.29654 7.68506 4.61102 8.35152L4.61868 8.36775L4.62563 8.38429C5.3144 10.0233 6.82204 12.1248 8.67157 14.1283L8.6803 14.1378L8.68873 14.1475C9.01896 14.5282 10.2668 15.756 10.9211 16.3422C12.7524 17.9827 14.5925 19.2797 16.0709 19.8789L16.0863 19.8851L16.1014 19.8919C17.4694 20.5107 18.3633 20.4183 18.9543 19.9873L18.9835 19.9661L19.0144 19.9474C19.1444 19.8689 19.6481 19.4796 20.1093 18.9434C20.5894 18.3852 20.8394 17.8784 20.8332 17.5337C20.8206 17.4202 20.7542 17.2421 20.5161 17.0058L20.5108 17.0005C20.2928 16.7801 19.727 16.3034 19.1293 15.8576C18.8353 15.6383 18.5504 15.4392 18.3136 15.2916C18.1949 15.2176 18.0976 15.1624 18.0234 15.1254C17.9775 15.1025 17.9524 15.0927 17.9448 15.0896C17.6803 15.0387 17.4634 15.1324 17.0142 15.3847L16.9917 15.3973C16.9275 15.435 16.845 15.4887 16.7277 15.5655L16.7088 15.5778C16.4915 15.7201 16.1787 15.9249 15.8603 16.0721C15.5797 16.2018 15.0485 16.4089 14.5115 16.2142L14.4938 16.2078L14.4763 16.2005C13.7746 15.9095 13.1018 15.5282 12.4673 15.0812C11.7965 14.6087 10.6845 13.524 9.98213 12.6842L9.97228 12.6724L9.96288 12.6603C9.31326 11.8228 8.76756 10.9061 8.38198 9.95708L8.3775 9.94604L8.37334 9.93489C8.17401 9.40103 8.38295 8.87516 8.50977 8.60393C8.65443 8.29455 8.85655 7.98913 8.99851 7.77461C9.00287 7.76803 9.00717 7.76153 9.01141 7.75512C9.09659 7.62635 9.15504 7.53742 9.19474 7.46907L9.20969 7.44284C9.46721 6.99106 9.55444 6.78431 9.50537 6.54023C9.5023 6.53262 9.49253 6.50838 9.47016 6.46446C9.4328 6.39113 9.37678 6.29461 9.30125 6.17652C9.15059 5.94095 8.94696 5.65779 8.72256 5.36539C8.26835 4.77352 7.78064 4.21041 7.5552 3.99027C7.32043 3.76395 7.13382 3.68741 7.0082 3.6667C6.63543 3.6704 6.10392 3.94262 5.53638 4.4261C5.26846 4.65434 5.0318 4.89594 4.85198 5.09924C4.76239 5.20054 4.68973 5.28913 4.63655 5.35818C4.59036 5.41815 4.56841 5.45104 4.56281 5.45943Z" fill="#EEF2F8"/>
</svg>
