<svg width="25" height="23" viewBox="0 0 21 20" fill="none" xmlns="http://www.w3.org/2000/svg">
<g id="Chat">
<g id="Vector">
<path fill-rule="evenodd" clip-rule="evenodd" d="M10.4994 2.94904C6.60503 2.94904 3.44807 6.10601 3.44807 10.0003C3.44807 11.167 3.7309 12.2657 4.23118 13.2335C4.27822 13.3245 4.30277 13.4254 4.30277 13.5279V16.1969H6.97183C7.07426 16.1969 7.1752 16.2215 7.2662 16.2685C8.23396 16.7688 9.33269 17.0516 10.4994 17.0516C14.3937 17.0516 17.5506 13.8946 17.5506 10.0003C17.5506 6.10601 14.3937 2.94904 10.4994 2.94904ZM2.16602 10.0003C2.16602 5.39795 5.89698 1.66699 10.4994 1.66699C15.1017 1.66699 18.8327 5.39795 18.8327 10.0003C18.8327 14.6027 15.1017 18.3337 10.4994 18.3337C9.17953 18.3337 7.92975 18.0264 6.81925 17.479H3.66174C3.30771 17.479 3.02072 17.192 3.02072 16.8379V13.6804C2.4733 12.5699 2.16602 11.3201 2.16602 10.0003Z" fill="currentColor"/>
<path d="M8.78995 10.0003C8.78995 10.4724 8.40729 10.855 7.93525 10.855C7.46321 10.855 7.08055 10.4724 7.08055 10.0003C7.08055 9.52829 7.46321 9.14563 7.93525 9.14563C8.40729 9.14563 8.78995 9.52829 8.78995 10.0003Z" fill="currentColor"/>
<path d="M11.3541 10.0003C11.3541 10.4724 10.9714 10.855 10.4994 10.855C10.0273 10.855 9.64465 10.4724 9.64465 10.0003C9.64465 9.52829 10.0273 9.14563 10.4994 9.14563C10.9714 9.14563 11.3541 9.52829 11.3541 10.0003Z" fill="currentColor"/>
<path d="M13.9182 10.0003C13.9182 10.4724 13.5355 10.855 13.0635 10.855C12.5914 10.855 12.2088 10.4724 12.2088 10.0003C12.2088 9.52829 12.5914 9.14563 13.0635 9.14563C13.5355 9.14563 13.9182 9.52829 13.9182 10.0003Z" fill="currentColor"/>
</g>
</g>
</svg>
