<svg width="49" height="48" viewBox="0 0 49 48" fill="none" xmlns="http://www.w3.org/2000/svg">
<rect x="0.5" width="48" height="48" rx="24" fill="#EEF2F8"/>
<path fill-rule="evenodd" clip-rule="evenodd" d="M16.7268 16.2268C17.0291 15.9244 17.5193 15.9244 17.8216 16.2268L24.5 22.9051L31.1784 16.2268C31.4807 15.9244 31.9709 15.9244 32.2732 16.2268C32.5756 16.5291 32.5756 17.0193 32.2732 17.3216L25.5949 24L32.2732 30.6784C32.5756 30.9807 32.5756 31.4709 32.2732 31.7732C31.9709 32.0756 31.4807 32.0756 31.1784 31.7732L24.5 25.0949L17.8216 31.7732C17.5193 32.0756 17.0291 32.0756 16.7268 31.7732C16.4244 31.4709 16.4244 30.9807 16.7268 30.6784L23.4051 24L16.7268 17.3216C16.4244 17.0193 16.4244 16.5291 16.7268 16.2268Z" fill="#246CDA"/>
</svg>
