<svg width="21" height="20" viewBox="0 0 21 20" fill="none" xmlns="http://www.w3.org/2000/svg">
<g id="Category">
<g id="Vector">
<path fill-rule="evenodd" clip-rule="evenodd" d="M5.91602 2.99052C5.30541 2.99052 4.4463 3.13607 3.87602 3.24979C3.81044 3.26287 3.76189 3.31141 3.74881 3.37699C3.63509 3.94728 3.48955 4.80638 3.48955 5.41699C3.48955 6.0276 3.63509 6.8867 3.74881 7.45699C3.76189 7.52257 3.81044 7.57112 3.87602 7.58419C4.4463 7.69792 5.30541 7.84346 5.91602 7.84346C6.52662 7.84346 7.38573 7.69792 7.95602 7.58419C8.02159 7.57112 8.07014 7.52257 8.08322 7.45699C8.19694 6.8867 8.34249 6.0276 8.34249 5.41699C8.34249 4.80638 8.19694 3.94728 8.08322 3.37699C8.07014 3.31141 8.02159 3.26287 7.95602 3.24979C7.38573 3.13607 6.52662 2.99052 5.91602 2.99052ZM3.61718 1.95182C4.18875 1.83784 5.16181 1.66699 5.91602 1.66699C6.67022 1.66699 7.64329 1.83784 8.21485 1.95182C8.80495 2.06949 9.26352 2.52806 9.38119 3.11816C9.49517 3.68972 9.66602 4.66279 9.66602 5.41699C9.66602 6.17119 9.49517 7.14426 9.38119 7.71583C9.26352 8.30593 8.80495 8.76449 8.21485 8.88217C7.64328 8.99615 6.67022 9.16699 5.91602 9.16699C5.16181 9.16699 4.18875 8.99615 3.61718 8.88217C3.02708 8.76449 2.56852 8.30593 2.45084 7.71583C2.33686 7.14426 2.16602 6.17119 2.16602 5.41699C2.16602 4.66279 2.33686 3.68972 2.45084 3.11816C2.56852 2.52805 3.02708 2.06949 3.61718 1.95182Z" fill="currentColor"/>
<path fill-rule="evenodd" clip-rule="evenodd" d="M5.91602 12.1572C5.30541 12.1572 4.4463 12.3027 3.87602 12.4165C3.81044 12.4295 3.76189 12.4781 3.74881 12.5437C3.63509 13.1139 3.48955 13.9731 3.48955 14.5837C3.48955 15.1943 3.63509 16.0534 3.74881 16.6237C3.76189 16.6892 3.81044 16.7378 3.87602 16.7509C4.4463 16.8646 5.30541 17.0101 5.91602 17.0101C6.52662 17.0101 7.38573 16.8646 7.95602 16.7509C8.02159 16.7378 8.07014 16.6892 8.08322 16.6237C8.19694 16.0534 8.34249 15.1943 8.34249 14.5837C8.34249 13.9731 8.19694 13.1139 8.08322 12.5437C8.07014 12.4781 8.02159 12.4295 7.95602 12.4165C7.38573 12.3027 6.52662 12.1572 5.91602 12.1572ZM3.61718 11.1185C4.18875 11.0045 5.16181 10.8337 5.91602 10.8337C6.67022 10.8337 7.64329 11.0045 8.21485 11.1185C8.80495 11.2362 9.26352 11.6947 9.38119 12.2848C9.49517 12.8564 9.66602 13.8295 9.66602 14.5837C9.66602 15.3379 9.49517 16.3109 9.38119 16.8825C9.26352 17.4726 8.80495 17.9312 8.21485 18.0488C7.64328 18.1628 6.67022 18.3337 5.91602 18.3337C5.16181 18.3337 4.18875 18.1628 3.61718 18.0488C3.02708 17.9312 2.56852 17.4726 2.45084 16.8825C2.33686 16.3109 2.16602 15.3379 2.16602 14.5837C2.16602 13.8295 2.33686 12.8564 2.45084 12.2848C2.56852 11.6947 3.02708 11.2362 3.61718 11.1185Z" fill="currentColor"/>
<path fill-rule="evenodd" clip-rule="evenodd" d="M15.0827 2.99052C14.4721 2.99052 13.613 3.13607 13.0427 3.24979C12.9771 3.26287 12.9286 3.31141 12.9155 3.37699C12.8018 3.94728 12.6562 4.80638 12.6562 5.41699C12.6562 6.0276 12.8018 6.8867 12.9155 7.45699C12.9286 7.52257 12.9771 7.57112 13.0427 7.58419C13.613 7.69792 14.4721 7.84346 15.0827 7.84346C15.6933 7.84346 16.5524 7.69792 17.1227 7.58419C17.1883 7.57112 17.2368 7.52257 17.2499 7.45699C17.3636 6.8867 17.5092 6.0276 17.5092 5.41699C17.5092 4.80638 17.3636 3.94728 17.2499 3.37699C17.2368 3.31141 17.1883 3.26287 17.1227 3.24979C16.5524 3.13607 15.6933 2.99052 15.0827 2.99052ZM12.7838 1.95182C13.3554 1.83784 14.3285 1.66699 15.0827 1.66699C15.8369 1.66699 16.81 1.83784 17.3815 1.95182C17.9716 2.06949 18.4302 2.52806 18.5479 3.11816C18.6618 3.68972 18.8327 4.66279 18.8327 5.41699C18.8327 6.17119 18.6618 7.14426 18.5479 7.71583C18.4302 8.30593 17.9716 8.76449 17.3815 8.88217C16.81 8.99615 15.8369 9.16699 15.0827 9.16699C14.3285 9.16699 13.3554 8.99615 12.7838 8.88217C12.1937 8.76449 11.7352 8.30593 11.6175 7.71583C11.5035 7.14426 11.3327 6.17119 11.3327 5.41699C11.3327 4.66279 11.5035 3.68972 11.6175 3.11816C11.7352 2.52805 12.1937 2.06949 12.7838 1.95182Z" fill="currentColor"/>
<path fill-rule="evenodd" clip-rule="evenodd" d="M15.0827 12.1572C14.4721 12.1572 13.613 12.3027 13.0427 12.4165C12.9771 12.4295 12.9286 12.4781 12.9155 12.5437C12.8018 13.1139 12.6562 13.9731 12.6562 14.5837C12.6562 15.1943 12.8018 16.0534 12.9155 16.6237C12.9286 16.6892 12.9771 16.7378 13.0427 16.7509C13.613 16.8646 14.4721 17.0101 15.0827 17.0101C15.6933 17.0101 16.5524 16.8646 17.1227 16.7509C17.1883 16.7378 17.2368 16.6892 17.2499 16.6237C17.3636 16.0534 17.5092 15.1943 17.5092 14.5837C17.5092 13.9731 17.3636 13.1139 17.2499 12.5437C17.2368 12.4781 17.1883 12.4295 17.1227 12.4165C16.5524 12.3027 15.6933 12.1572 15.0827 12.1572ZM12.7838 11.1185C13.3554 11.0045 14.3285 10.8337 15.0827 10.8337C15.8369 10.8337 16.81 11.0045 17.3815 11.1185C17.9716 11.2362 18.4302 11.6947 18.5479 12.2848C18.6618 12.8564 18.8327 13.8295 18.8327 14.5837C18.8327 15.3379 18.6618 16.3109 18.5479 16.8825C18.4302 17.4726 17.9716 17.9312 17.3815 18.0488C16.81 18.1628 15.8369 18.3337 15.0827 18.3337C14.3285 18.3337 13.3554 18.1628 12.7838 18.0488C12.1937 17.9312 11.7352 17.4726 11.6175 16.8825C11.5035 16.3109 11.3327 15.3379 11.3327 14.5837C11.3327 13.8295 11.5035 12.8564 11.6175 12.2848C11.7352 11.6947 12.1937 11.2362 12.7838 11.1185Z" fill="currentColor"/>
</g>
</g>
</svg>
