<svg width="24" height="24" viewBox="0 0 24 24" fill="none" xmlns="http://www.w3.org/2000/svg">
<path d="M17.8566 14.4C16.2514 14.4 14.9456 15.656 14.9456 17.2C14.9456 18.7439 16.2514 20 17.8566 20C19.4619 20 20.7675 18.7439 20.7675 17.2C20.7675 15.656 19.4617 14.4 17.8566 14.4ZM17.8566 18.6C17.0539 18.6 16.4011 17.9721 16.4011 17.2C16.4011 16.4279 17.0539 15.8 17.8566 15.8C18.6592 15.8 19.312 16.4279 19.312 17.2C19.312 17.9721 18.6592 18.6 17.8566 18.6ZM7.91093 14.4C6.30581 14.4 5 15.656 5 17.2C5 18.7439 6.30581 20 7.91093 20C9.51605 20 10.8219 18.7439 10.8219 17.2C10.8219 15.656 9.51605 14.4 7.91093 14.4ZM7.91093 18.6C7.10825 18.6 6.45546 17.9721 6.45546 17.2C6.45546 16.4279 7.10825 15.8 7.91093 15.8C8.71337 15.8 9.36639 16.4279 9.36639 17.2C9.36639 17.9721 8.7136 18.6 7.91093 18.6ZM19.8168 6.38548C19.7562 6.26959 19.6633 6.17218 19.5484 6.10411C19.4336 6.03605 19.3014 6 19.1665 6H15.3338V7.4H18.7177L20.6993 11.1912L22 11L19.8168 6.38548Z" fill="currentColor"/>
<path d="M10.2899 16.5289H15.5357V18H10.2899V16.5289ZM6.0609 16.5289H3.65757C3.27464 16.5289 2.96432 16.8582 2.96432 17.2644C2.96432 17.6707 3.27468 18 3.65757 18H6.06095C6.44388 18 6 17.4062 6 17C6 16.5937 6.44384 16.5289 6.0609 16.5289ZM22.8544 12.0322L21.4908 10.1688C21.426 10.0802 21.343 10.0085 21.2481 9.95922C21.1532 9.90992 21.049 9.88432 20.9433 9.88437H15.9055V4.73553C15.9055 4.32924 15.5951 4 15.2122 4H3.65757C3.27464 4 2.96432 4.32929 2.96432 4.73553C2.96432 5.14177 3.27468 5.47106 3.65757 5.47106H14.5189V10.6199C14.5189 11.0262 14.8293 11.3554 15.2122 11.3554H20.6038L21.6134 12.7353V16.5288H19.6954C19.3124 16.5288 19.5 17.0938 19.5 17.5C19.5 17.9063 19.3125 17.9999 19.6954 17.9999H22.3067C22.6896 17.9999 23 17.6706 23 17.2643V12.4833C23 12.32 22.9487 12.1612 22.8544 12.0322ZM6.01471 12.8021H2.82561C2.44268 12.8021 2.13236 13.1314 2.13236 13.5376C2.13236 13.9439 2.44272 14.2732 2.82561 14.2732H6.01467C6.39761 14.2732 6.70793 13.9439 6.70793 13.5376C6.70797 13.1314 6.39761 12.8021 6.01471 12.8021ZM7.60924 9.9089H1.69326C1.31036 9.9089 1 10.2382 1 10.6445C1 11.0508 1.31036 11.38 1.69326 11.38H7.60924C7.99218 11.38 8.3025 11.0507 8.3025 10.6445C8.3025 10.2382 7.99218 9.9089 7.60924 9.9089Z" fill="currentColor"/>
<path d="M8.33546 7H2.66454C2.29747 7 2 7.44769 2 8C2 8.55237 2.29751 9 2.66454 9H8.33546C8.70253 9 9 8.55231 9 8C9.00004 7.44769 8.70253 7 8.33546 7Z" fill="currentColor"/>
</svg>
