<svg width="18" height="19" viewBox="0 0 18 19" fill="none" xmlns="http://www.w3.org/2000/svg">
<g id="Edit">
<path id="Vector 72 (Stroke)" fill-rule="evenodd" clip-rule="evenodd" d="M11.5207 2.68369C12.4323 1.7721 13.9103 1.77211 14.8219 2.68369L15.8163 3.67814C16.7279 4.58973 16.7279 6.0677 15.8163 6.97928L6.47928 16.3163C6.04152 16.7541 5.4478 17 4.82871 17H2.13662C1.78502 17 1.5 16.715 1.5 16.3634V13.6713C1.5 13.0522 1.74593 12.4585 2.18369 12.0207L11.5207 2.68369ZM13.9215 3.584C13.5072 3.16964 12.8354 3.16964 12.421 3.584L10.6763 5.32871L13.1713 7.82369L14.916 6.07897C15.3304 5.66462 15.3304 4.99281 14.916 4.57846L13.9215 3.584ZM12.271 8.724L9.776 6.22902L3.084 12.921C2.88502 13.12 2.77323 13.3899 2.77323 13.6713V15.7268H4.82871C5.11011 15.7268 5.37999 15.615 5.57897 15.416L12.271 8.724Z" fill="currentColor"/>
</g>
</svg>
