<svg width="32" height="32" viewBox="0 0 32 32" fill="none" xmlns="http://www.w3.org/2000/svg">
<rect width="32" height="32" rx="16" fill="#FF4444"/>
<path fill-rule="evenodd" clip-rule="evenodd" d="M11.1417 11.1417C11.3307 10.9528 11.6371 10.9528 11.826 11.1417L16 15.3157L20.174 11.1417C20.3629 10.9528 20.6693 10.9528 20.8583 11.1417C21.0472 11.3307 21.0472 11.6371 20.8583 11.826L16.6843 16L20.8583 20.174C21.0472 20.3629 21.0472 20.6693 20.8583 20.8583C20.6693 21.0472 20.3629 21.0472 20.174 20.8583L16 16.6843L11.826 20.8583C11.6371 21.0472 11.3307 21.0472 11.1417 20.8583C10.9528 20.6693 10.9528 20.3629 11.1417 20.174L15.3157 16L11.1417 11.826C10.9528 11.6371 10.9528 11.3307 11.1417 11.1417Z" fill="#FFEDED"/>
</svg>
