<svg width="19" height="18" viewBox="0 0 19 18" fill="none" xmlns="http://www.w3.org/2000/svg">
<path d="M6.00212 2.75H12.9979C13.4827 2.75 13.8915 3.05539 14.1058 3.53408C14.3205 4.01354 14.3086 4.61022 13.9819 5.0966L11.067 9.43735C10.8582 9.74841 10.7489 10.1203 10.7489 10.4974V13.3601C10.7489 13.6177 10.6459 13.8483 10.4888 13.9945L9.3228 15.0797C9.10726 15.2803 8.86068 15.2895 8.65423 15.1815C8.43996 15.0694 8.25106 14.8158 8.25106 14.4453V10.4974C8.25106 10.1203 8.14185 9.74841 7.93296 9.43735L5.01806 5.0966C4.69144 4.61022 4.67953 4.01354 4.89417 3.53408C5.10847 3.05539 5.51734 2.75 6.00212 2.75Z" stroke="#EEF2F8" stroke-linecap="round" stroke-linejoin="round" fill="currentColor"/>
<path d="M7.25 5.25H11.75" stroke="#EEF2F8" stroke-linecap="round" stroke-linejoin="round"/>
</svg>
