<svg width="18" height="18" viewBox="0 0 18 18" fill="none" xmlns="http://www.w3.org/2000/svg">
<g id="Gift">
<path id="Squircle" d="M3.75 8.625C3.75 14.375 3.75 15 8.99994 15C14.2499 15 14.2499 14.375 14.2499 8.625" stroke="currentColor" stroke-linecap="round" stroke-linejoin="round"/>
<path id="Vector 126" d="M8.99996 4.36364C8.99996 3.61151 8.38945 3 7.63635 3C6.88324 3 6.27273 3.61052 6.27273 4.36364C6.27273 5.11675 6.88324 5.72727 7.63635 5.72727H8.99996M8.99996 4.36364C8.99996 4.89617 8.99996 5.72727 8.99996 5.72727M8.99996 4.36364C8.99996 3.61151 9.61047 3 10.3636 3C11.1167 3 11.7272 3.61052 11.7272 4.36364C11.7272 5.11675 11.0807 5.72727 10.3636 5.72727C9.68177 5.72727 8.99996 5.72727 8.99996 5.72727M8.99996 5.72727V15M8.99996 5.72727C8.99996 5.72727 12.2726 5.72727 13.3635 5.72727C14.4544 5.72727 14.9998 6 14.9998 7.09091C14.9998 8.18182 14.4544 8.45455 13.3635 8.45455C12.2726 8.45455 5.18179 8.45455 4.36362 8.45455C3.54545 8.45455 3 8.18182 3 7.09091C3 6 3.48123 5.72727 4.36362 5.72727C5.246 5.72727 8.99996 5.72727 8.99996 5.72727Z" stroke="currentColor" stroke-linecap="round" stroke-linejoin="round"/>
</g>
</svg>
