<svg width="31" height="32" viewBox="0 0 31 32" fill="none" xmlns="http://www.w3.org/2000/svg">
<g id="Image">
<g id="Vector">
<path d="M11.6538 10.7005C11.6538 11.4322 11.0799 12.0253 10.3718 12.0253C9.66374 12.0253 9.08974 11.4322 9.08974 10.7005C9.08974 9.96887 9.66374 9.37574 10.3718 9.37574C11.0799 9.37574 11.6538 9.96887 11.6538 10.7005Z" fill="currentColor"/>
<path fill-rule="evenodd" clip-rule="evenodd" d="M15.5 5.07019C12.7885 5.07019 9.08269 5.32732 6.76869 5.51256C6.0077 5.57349 5.41014 6.19096 5.35118 6.97732C5.17191 9.36846 4.92308 13.1978 4.92308 15.9997C4.92308 18.2466 5.0831 21.1542 5.23894 23.4511L13.9102 16.2829C16.1948 14.3943 19.4562 14.4514 21.6775 16.4189L25.9536 20.2062C26.026 18.7459 26.0769 17.2676 26.0769 15.9997C26.0769 13.1978 25.8281 9.36846 25.6488 6.97732C25.5899 6.19096 24.9923 5.57349 24.2313 5.51256C21.9173 5.32732 18.2115 5.07019 15.5 5.07019ZM27.7617 22.3201C27.8889 20.2558 28 17.907 28 15.9997C28 13.1134 27.7455 9.21608 27.5661 6.82383C27.434 5.06108 26.0857 3.66789 24.3799 3.53132C22.0648 3.34599 18.2932 3.08301 15.5 3.08301C12.7068 3.08301 8.93523 3.34599 6.62015 3.53132C4.91426 3.66789 3.56601 5.06108 3.43385 6.82383C3.2545 9.21608 3 13.1134 3 15.9997C3 18.8859 3.2545 22.7833 3.43385 25.1755C3.56601 26.9383 4.91426 28.3315 6.62015 28.468C8.93523 28.6534 12.7068 28.9163 15.5 28.9163C18.2932 28.9163 22.0648 28.6534 24.3798 28.468C26.0857 28.3315 27.434 26.9383 27.5661 25.1755C27.6266 24.3691 27.6956 23.3917 27.7605 22.3396C27.761 22.3331 27.7614 22.3266 27.7617 22.3201ZM25.8109 22.697L20.426 17.9276C18.9061 16.5815 16.6746 16.5424 15.1115 17.8346L5.60736 25.6913C5.59411 25.7023 5.58067 25.7128 5.56706 25.7229C5.81652 26.1514 6.25543 26.4457 6.76869 26.4868C9.08269 26.672 12.7885 26.9292 15.5 26.9292C18.2115 26.9292 21.9173 26.672 24.2313 26.4868C24.9923 26.4259 25.5899 25.8084 25.6488 25.022C25.6997 24.344 25.7561 23.5502 25.8109 22.697Z" fill="currentColor"/>
</g>
</g>
</svg>
