<svg width="32" height="32" viewBox="0 0 32 32" fill="none" xmlns="http://www.w3.org/2000/svg">
<g id="Info-Circle">
<path id="Vector" d="M15.9994 2.66699C8.65241 2.66699 2.66602 8.65339 2.66602 16.0003C2.66602 23.3473 8.65241 29.3337 15.9994 29.3337C23.3463 29.3337 29.3327 23.3473 29.3327 16.0003C29.3327 8.65339 23.3463 2.66699 15.9994 2.66699ZM17.0878 20.7622C17.0878 21.3064 16.6796 21.8507 15.9994 21.8507C15.3191 21.8507 14.9109 21.4425 14.9109 20.7622V15.3201C14.9109 14.7758 15.3191 14.2316 15.9994 14.2316C16.6796 14.2316 17.0878 14.6398 17.0878 15.3201V20.7622ZM15.9994 12.599C15.3191 12.599 14.6388 11.9187 14.6388 11.2384C14.6388 10.5582 15.3191 9.87788 15.9994 9.87788C16.6796 9.87788 17.3599 10.5582 17.3599 11.2384C17.3599 11.9187 16.6796 12.599 15.9994 12.599Z" fill="currentColor"/>
</g>
</svg>
