<svg width="21" height="12" viewBox="0 0 21 12" fill="none" xmlns="http://www.w3.org/2000/svg">
<path d="M6.28 11.5L1.688 6.412V11.5H0.232V0.348H1.688V5.516L6.296 0.348H8.136L3.08 5.932L8.184 11.5H6.28ZM18.2581 3.58C17.9488 2.92933 17.5008 2.428 16.9141 2.076C16.3275 1.71333 15.6448 1.532 14.8661 1.532C14.0875 1.532 13.3835 1.71333 12.7541 2.076C12.1355 2.428 11.6448 2.94 11.2821 3.612C10.9301 4.27333 10.7541 5.04133 10.7541 5.916C10.7541 6.79067 10.9301 7.55867 11.2821 8.22C11.6448 8.88133 12.1355 9.39333 12.7541 9.756C13.3835 10.108 14.0875 10.284 14.8661 10.284C15.9541 10.284 16.8501 9.95867 17.5541 9.308C18.2581 8.65733 18.6688 7.77733 18.7861 6.668H14.3381V5.484H20.3381V6.604C20.2528 7.52133 19.9648 8.364 19.4741 9.132C18.9835 9.88933 18.3381 10.492 17.5381 10.94C16.7381 11.3773 15.8475 11.596 14.8661 11.596C13.8315 11.596 12.8875 11.356 12.0341 10.876C11.1808 10.3853 10.5035 9.708 10.0021 8.844C9.51146 7.98 9.26613 7.004 9.26613 5.916C9.26613 4.828 9.51146 3.852 10.0021 2.988C10.5035 2.11333 11.1808 1.436 12.0341 0.955999C12.8875 0.465333 13.8315 0.219999 14.8661 0.219999C16.0501 0.219999 17.0955 0.513333 18.0021 1.1C18.9195 1.68667 19.5861 2.51333 20.0021 3.58H18.2581Z" fill="currentColor"/>
</svg>
