<svg width="25" height="24" viewBox="0 0 25 24" fill="none" xmlns="http://www.w3.org/2000/svg">
<path fill-rule="evenodd" clip-rule="evenodd" d="M12.5 3.47937C8.31281 3.47937 4.78068 6.52132 5.06837 10.3097C5.10963 10.853 5.17131 11.326 5.25535 11.7013C5.67935 13.5948 7.01026 15.4758 8.50934 17.0726C9.99565 18.6558 11.5782 19.8875 12.3959 20.4848C12.4613 20.5326 12.5387 20.5326 12.6041 20.4848C13.4218 19.8875 15.0043 18.6558 16.4907 17.0726C17.9897 15.4758 19.3206 13.5948 19.7446 11.7013C19.8287 11.326 19.8904 10.853 19.9316 10.3097C20.2193 6.52132 16.6872 3.47937 12.5 3.47937ZM3.52115 10.4166C3.15409 5.5831 7.62259 2 12.5 2C17.3774 2 21.8459 5.5831 21.4789 10.4166C21.4349 10.9955 21.3664 11.5428 21.2617 12.0103C20.7534 14.2803 19.2089 16.3951 17.6464 18.0594C16.0712 19.7373 14.4062 21.0319 13.5474 21.6592C12.9254 22.1136 12.0746 22.1136 11.4526 21.6592C10.5938 21.0319 8.92877 19.7373 7.35358 18.0594C5.79114 16.3951 4.24659 14.2803 3.73828 12.0103C3.63359 11.5428 3.56511 10.9955 3.52115 10.4166Z" fill="currentColor"/>
<path fill-rule="evenodd" clip-rule="evenodd" d="M12.5 9.39685C11.786 9.39685 11.2073 9.94879 11.2073 10.6297C11.2073 11.3105 11.786 11.8625 12.5 11.8625C13.214 11.8625 13.7927 11.3105 13.7927 10.6297C13.7927 9.94879 13.214 9.39685 12.5 9.39685ZM9.65599 10.6297C9.65599 9.13176 10.9293 7.91748 12.5 7.91748C14.0707 7.91748 15.344 9.13176 15.344 10.6297C15.344 12.1275 14.0707 13.3418 12.5 13.3418C10.9293 13.3418 9.65599 12.1275 9.65599 10.6297Z" fill="currentColor"/>
</svg>
