<svg width="20" height="20" viewBox="0 0 20 20" fill="none" xmlns="http://www.w3.org/2000/svg">
<g id="Logout">
<g id="Vector">
<path fill-rule="evenodd" clip-rule="evenodd" d="M4.23012 4.93906C4.23012 3.65789 5.28244 2.61931 6.58055 2.61931H9.99935C10.3534 2.61931 10.6404 2.90256 10.6404 3.25197C10.6404 3.60137 10.3534 3.88462 9.99935 3.88462H6.58055C5.9905 3.88462 5.51217 4.35671 5.51217 4.93906V5.7826C5.51217 6.13201 5.22517 6.41526 4.87114 6.41526C4.51712 6.41526 4.23012 6.13201 4.23012 5.7826V4.93906ZM4.87114 13.5854C5.22517 13.5854 5.51217 13.8686 5.51217 14.2181V15.0616C5.51217 15.6439 5.9905 16.116 6.58055 16.116H9.99935C10.3534 16.116 10.6404 16.3993 10.6404 16.7487C10.6404 17.0981 10.3534 17.3814 9.99935 17.3814H6.58055C5.28244 17.3814 4.23012 16.3428 4.23012 15.0616V14.2181C4.23012 13.8686 4.51712 13.5854 4.87114 13.5854Z" fill="currentColor"/>
<path fill-rule="evenodd" clip-rule="evenodd" d="M10.6404 3.98881C10.6404 3.25442 11.382 2.74495 12.0798 3.00001L16.3533 4.56213C16.7724 4.71533 17.0506 5.10982 17.0506 5.55092V14.4497C17.0506 14.8908 16.7724 15.2853 16.3533 15.4385L12.0798 17.0006C11.382 17.2557 10.6404 16.7462 10.6404 16.0118V3.98881ZM12.5251 1.81346C10.99 1.25232 9.35832 2.37314 9.35832 3.98881V16.0118C9.35832 17.6275 10.99 18.7483 12.5251 18.1872L16.7986 16.6251C17.7206 16.288 18.3327 15.4201 18.3327 14.4497V5.55092C18.3327 4.58049 17.7206 3.71262 16.7986 3.37558L12.5251 1.81346Z" fill="currentColor"/>
<path fill-rule="evenodd" clip-rule="evenodd" d="M4.46972 7.86588C4.21938 7.61881 3.81351 7.61881 3.56317 7.86588L1.85377 9.55297C1.60343 9.80004 1.60343 10.2006 1.85377 10.4477L3.56317 12.1348C3.81351 12.3818 4.21938 12.3818 4.46972 12.1348C4.72005 11.8877 4.72005 11.4871 4.46972 11.2401L3.85461 10.633H7.43525C7.78928 10.633 8.07627 10.3497 8.07627 10.0003C8.07627 9.65092 7.78928 9.36767 7.43525 9.36767H3.85461L4.46972 8.7606C4.72005 8.51353 4.72005 8.11295 4.46972 7.86588Z" fill="currentColor"/>
</g>
</g>
</svg>
