<svg width="21" height="20" viewBox="0 0 21 20" fill="none" xmlns="http://www.w3.org/2000/svg">
<g id="Note">
<g id="Vector">
<path fill-rule="evenodd" clip-rule="evenodd" d="M10.5007 2.94904C9.22993 2.94904 7.52359 3.08851 6.33017 3.20424C5.83496 3.25226 5.44849 3.64457 5.41016 4.14193C5.29148 5.68161 5.12431 8.17768 5.12431 10.0003C5.12431 11.823 5.29148 14.319 5.41016 15.8587C5.44849 16.3561 5.83496 16.7484 6.33017 16.7964C7.52359 16.9121 9.22993 17.0516 10.5007 17.0516C11.7714 17.0516 13.4777 16.9121 14.6711 16.7964C15.1663 16.7484 15.5528 16.3561 15.5911 15.8587C15.7098 14.319 15.877 11.823 15.877 10.0003C15.877 8.17768 15.7098 5.68161 15.5911 4.14193C15.5528 3.64457 15.1663 3.25226 14.6711 3.20424C13.4777 3.08851 11.7714 2.94904 10.5007 2.94904ZM6.20483 1.92825C7.40141 1.81222 9.16193 1.66699 10.5007 1.66699C11.8394 1.66699 13.5999 1.81222 14.7965 1.92825C15.9197 2.03718 16.7919 2.93036 16.8777 4.04404C16.9964 5.58425 17.1673 8.12377 17.1673 10.0003C17.1673 11.8769 16.9964 14.4164 16.8777 15.9566C16.7919 17.0703 15.9197 17.9635 14.7965 18.0724C13.5999 18.1884 11.8394 18.3337 10.5007 18.3337C9.16193 18.3337 7.40141 18.1884 6.20483 18.0724C5.08156 17.9635 4.20944 17.0703 4.1236 15.9566C4.00489 14.4164 3.83398 11.8769 3.83398 10.0003C3.83398 8.12377 4.00489 5.58425 4.1236 4.04404C4.20944 2.93036 5.08156 2.03718 6.20483 1.92825Z" fill="currentColor"/>
<path fill-rule="evenodd" clip-rule="evenodd" d="M7.27484 11.7097C7.27484 12.0638 7.56369 12.3508 7.92001 12.3508H13.0813C13.4376 12.3508 13.7265 12.0638 13.7265 11.7097C13.7265 11.3557 13.4376 11.0687 13.0813 11.0687H7.92001C7.56369 11.0687 7.27484 11.3557 7.27484 11.7097Z" fill="currentColor"/>
<path fill-rule="evenodd" clip-rule="evenodd" d="M7.27484 8.29093C7.27484 8.64495 7.56369 8.93195 7.92001 8.93195H10.5007C10.857 8.93195 11.1458 8.64495 11.1458 8.29093C11.1458 7.9369 10.857 7.6499 10.5007 7.6499H7.92001C7.56369 7.6499 7.27484 7.9369 7.27484 8.29093Z" fill="currentColor"/>
</g>
</g>
</svg>
