<svg width="19" height="18" viewBox="0 0 19 18" fill="none" xmlns="http://www.w3.org/2000/svg">
<path fill-rule="evenodd" clip-rule="evenodd" d="M6.59677 11.3077C6.59677 10.9891 6.85674 10.7308 7.17742 10.7308H10.2742C10.5949 10.7308 10.8548 10.9891 10.8548 11.3077C10.8548 11.6263 10.5949 11.8846 10.2742 11.8846H7.17742C6.85674 11.8846 6.59677 11.6263 6.59677 11.3077Z" fill="#246CDA"/>
<path fill-rule="evenodd" clip-rule="evenodd" d="M8.72581 13.4231C8.40512 13.4231 8.14516 13.1648 8.14516 12.8462V9.76923C8.14516 9.4506 8.40512 9.19231 8.72581 9.19231C9.04649 9.19231 9.30645 9.4506 9.30645 9.76923V12.8462C9.30645 13.1648 9.04649 13.4231 8.72581 13.4231Z" fill="#246CDA"/>
<path fill-rule="evenodd" clip-rule="evenodd" d="M9.5 2.65385C8.35635 2.65385 6.82065 2.77937 5.74657 2.88352C5.30088 2.92674 4.95306 3.27982 4.91855 3.72745C4.81175 5.11315 4.66129 7.35962 4.66129 9C4.66129 10.6404 4.81175 12.8868 4.91855 14.2726C4.95306 14.7202 5.30088 15.0733 5.74657 15.1165C6.82065 15.2206 8.35635 15.3462 9.5 15.3462C10.6436 15.3462 12.1794 15.2206 13.2534 15.1165C13.6991 15.0733 14.0469 14.7202 14.0814 14.2726C14.1883 12.8868 14.3387 10.6404 14.3387 9C14.3387 8.47101 14.323 7.87771 14.2981 7.26923H11.8232L11.8226 6.69231L11.8226 6.11538H14.2407C14.0977 4.28714 12.671 2.83088 10.8548 2.69695V5.15385C10.8548 5.68489 11.2881 6.11538 11.8226 6.11538L11.8226 6.69231L11.8232 7.26923C10.6474 7.26923 9.69355 6.32214 9.69355 5.15385V2.65498C9.62786 2.65423 9.56329 2.65385 9.5 2.65385ZM10.2927 1.51552C10.0183 1.50567 9.75136 1.5 9.5 1.5C8.29515 1.5 6.71068 1.6307 5.63376 1.73513C4.62282 1.83317 3.83791 2.63703 3.76066 3.63934C3.65381 5.02553 3.5 7.3111 3.5 9C3.5 10.6889 3.65381 12.9745 3.76066 14.3607C3.83791 15.363 4.62282 16.1668 5.63376 16.2649C6.71068 16.3693 8.29515 16.5 9.5 16.5C10.7048 16.5 12.2893 16.3693 13.3662 16.2649C14.3772 16.1668 15.1621 15.363 15.2393 14.3607C15.3462 12.9745 15.5 10.6889 15.5 9C15.5 8.28893 15.4728 7.4742 15.4335 6.66765C15.4334 6.66517 15.4333 6.66269 15.4332 6.66022C15.4247 6.48671 15.4157 6.31359 15.4062 6.14197C15.2711 3.68249 13.3383 1.67057 10.8371 1.53974C10.6562 1.53028 10.4763 1.52215 10.2994 1.51576" fill="#246CDA"/>
</svg>
