<svg width="21" height="20" viewBox="0 0 21 20" fill="none" xmlns="http://www.w3.org/2000/svg">
<g id="payment 1">
<path id="Vector" d="M5.5 11.875C5.33424 11.875 5.17527 11.9408 5.05806 12.0581C4.94085 12.1753 4.875 12.3342 4.875 12.5C4.875 12.6658 4.94085 12.8247 5.05806 12.9419C5.17527 13.0592 5.33424 13.125 5.5 13.125H10.5C10.6658 13.125 10.8247 13.0592 10.9419 12.9419C11.0592 12.8247 11.125 12.6658 11.125 12.5C11.125 12.3342 11.0592 12.1753 10.9419 12.0581C10.8247 11.9408 10.6658 11.875 10.5 11.875H5.5Z" fill="currentColor"/>
<path id="Vector_2" fill-rule="evenodd" clip-rule="evenodd" d="M4.66602 3.33301C4.00297 3.33301 3.36709 3.5964 2.89825 4.06524C2.42941 4.53408 2.16602 5.16997 2.16602 5.83301V14.1663C2.16602 14.8294 2.42941 15.4653 2.89825 15.9341C3.36709 16.4029 4.00297 16.6663 4.66602 16.6663H16.3327C16.9957 16.6663 17.6316 16.4029 18.1005 15.9341C18.5693 15.4653 18.8327 14.8294 18.8327 14.1663V5.83301C18.8327 5.16997 18.5693 4.53408 18.1005 4.06524C17.6316 3.5964 16.9957 3.33301 16.3327 3.33301H4.66602ZM16.3327 4.58301H4.66602C4.3345 4.58301 4.01655 4.7147 3.78213 4.94912C3.54771 5.18354 3.41602 5.50149 3.41602 5.83301V6.87467H17.5827V5.83301C17.5827 5.50149 17.451 5.18354 17.2166 4.94912C16.9821 4.7147 16.6642 4.58301 16.3327 4.58301ZM3.41602 14.1663V8.12467H17.5827V14.1663C17.5827 14.4979 17.451 14.8158 17.2166 15.0502C16.9821 15.2846 16.6642 15.4163 16.3327 15.4163H4.66602C4.3345 15.4163 4.01655 15.2846 3.78213 15.0502C3.54771 14.8158 3.41602 14.4979 3.41602 14.1663Z" fill="currentColor"/>
</g>
</svg>
