<svg width="13" height="14" viewBox="0 0 13 14" fill="none" xmlns="http://www.w3.org/2000/svg">
<path d="M0.756 3.42C0.756 2.604 1.002 1.956 1.494 1.476C1.986 0.983999 2.616 0.737999 3.384 0.737999C4.152 0.737999 4.782 0.983999 5.274 1.476C5.766 1.956 6.012 2.604 6.012 3.42C6.012 4.248 5.766 4.908 5.274 5.4C4.782 5.88 4.152 6.12 3.384 6.12C2.616 6.12 1.986 5.88 1.494 5.4C1.002 4.908 0.756 4.248 0.756 3.42ZM11.268 0.936L3.978 13.5H2.358L9.648 0.936H11.268ZM3.384 1.746C2.976 1.746 2.652 1.89 2.412 2.178C2.184 2.454 2.07 2.868 2.07 3.42C2.07 3.972 2.184 4.392 2.412 4.68C2.652 4.968 2.976 5.112 3.384 5.112C3.792 5.112 4.116 4.968 4.356 4.68C4.596 4.38 4.716 3.96 4.716 3.42C4.716 2.868 4.596 2.454 4.356 2.178C4.116 1.89 3.792 1.746 3.384 1.746ZM7.65 11.016C7.65 10.188 7.896 9.534 8.388 9.054C8.88 8.562 9.51 8.316 10.278 8.316C11.046 8.316 11.67 8.562 12.15 9.054C12.642 9.534 12.888 10.188 12.888 11.016C12.888 11.832 12.642 12.486 12.15 12.978C11.67 13.47 11.046 13.716 10.278 13.716C9.51 13.716 8.88 13.476 8.388 12.996C7.896 12.504 7.65 11.844 7.65 11.016ZM10.26 9.342C9.852 9.342 9.528 9.486 9.288 9.774C9.048 10.05 8.928 10.464 8.928 11.016C8.928 11.556 9.048 11.97 9.288 12.258C9.528 12.534 9.852 12.672 10.26 12.672C10.668 12.672 10.992 12.534 11.232 12.258C11.472 11.97 11.592 11.556 11.592 11.016C11.592 10.464 11.472 10.05 11.232 9.774C10.992 9.486 10.668 9.342 10.26 9.342Z" fill="currentColor"/>
</svg>
