<svg width="19" height="18" viewBox="0 0 19 18" fill="none" xmlns="http://www.w3.org/2000/svg">
<circle cx="14" cy="7.375" r="0.75" fill="#246CDA"/>
<path fill-rule="evenodd" clip-rule="evenodd" d="M12.9793 4.72953C13.547 4.78392 14.0393 4.85853 14.4653 4.95794C14.4895 4.70434 14.5 4.42673 14.5 4.12303C14.5 1.34534 13.6175 0.75 9.5 0.75C5.3825 0.75 4.5 1.34534 4.5 4.12303C4.5 4.42673 4.51055 4.70434 4.53472 4.95794C4.9607 4.85853 5.45303 4.78392 6.02065 4.72953C6.0077 4.56221 6 4.36224 6 4.12303C6 2.82951 6.22509 2.68361 6.28903 2.64217L6.29481 2.63838C6.40008 2.56737 6.64725 2.45333 7.20408 2.36984C7.75426 2.28736 8.49299 2.25 9.5 2.25C10.507 2.25 11.2457 2.28736 11.7959 2.36984C12.3528 2.45333 12.5999 2.56737 12.7052 2.63838L12.711 2.64217C12.7749 2.68361 13 2.82951 13 4.12303C13 4.36224 12.9923 4.56221 12.9793 4.72953Z" fill="#246CDA"/>
<path d="M5 13.375C5 14.9266 5.24679 15.4995 5.68435 15.8107C5.93466 15.9887 6.32402 16.1386 6.96027 16.2374C7.59415 16.3358 8.41299 16.375 9.47878 16.375C10.5444 16.375 11.3663 16.3358 12.0046 16.2373C12.6452 16.1384 13.0416 15.988 13.2984 15.8079C13.7456 15.4941 14 14.919 14 13.375C14 12.412 13.9978 11.7787 13.9266 11.3228C13.8597 10.8946 13.7535 10.774 13.6563 10.7049C13.5054 10.5975 13.1921 10.4886 12.4671 10.4313C11.7625 10.3756 10.8097 10.375 9.47878 10.375C8.15838 10.375 7.2138 10.3756 6.51547 10.4312C5.79691 10.4885 5.4885 10.5972 5.3407 10.7032C5.24546 10.7715 5.13944 10.8921 5.07286 11.3219C5.00214 11.7783 5 12.4122 5 13.375Z" stroke="#246CDA" stroke-width="1.5" stroke-linecap="round" stroke-linejoin="round"/>
<path fill-rule="evenodd" clip-rule="evenodd" d="M3.5 9.17944C3.5 10.2058 3.54439 10.8334 3.65566 11.2561C3.74638 11.6007 3.8528 11.7085 3.98752 11.7957C4.10169 11.8697 4.2807 11.9518 4.56608 12.029C4.51946 12.3863 4.5 12.7914 4.5 13.25C4.5 13.3548 4.50102 13.4569 4.50315 13.5563C2.27804 13.0801 2 11.9104 2 9.17944C2 5.08493 3.25 4.5 9.5 4.5C16.375 4.5 17 5.08493 17 9.17944C17 11.9104 16.722 13.0801 14.4969 13.5563C14.499 13.4569 14.5 13.3548 14.5 13.25C14.5 12.7914 14.4805 12.3863 14.4339 12.029C14.7193 11.9518 14.8983 11.8697 15.0125 11.7957C15.1472 11.7085 15.2536 11.6007 15.3443 11.2561C15.4556 10.8334 15.5 10.2058 15.5 9.17944C15.5 8.15308 15.4556 7.52545 15.3443 7.10278C15.2536 6.75815 15.1472 6.65043 15.0125 6.56314C14.7974 6.4238 14.3523 6.25579 13.3996 6.1454C12.4672 6.03736 11.2139 6 9.5 6C7.94619 6 6.77125 6.0372 5.86907 6.14481C4.95405 6.25396 4.45866 6.42166 4.17955 6.58959C3.84104 6.79325 3.5 7.16275 3.5 9.17944Z" fill="#246CDA"/>
</svg>
