<svg width="32" height="32" viewBox="0 0 32 32" fill="none" xmlns="http://www.w3.org/2000/svg">
<g id="Qustion-Circle">
<path id="Vector" d="M15.9994 2.66699C8.65241 2.66699 2.66602 8.65339 2.66602 16.0003C2.66602 23.3473 8.65241 29.3337 15.9994 29.3337C23.3463 29.3337 29.3327 23.3473 29.3327 16.0003C29.3327 8.65339 23.3463 2.66699 15.9994 2.66699ZM15.9994 23.4833C15.3191 23.4833 14.6388 22.8031 14.6388 22.1228C14.6388 21.4425 15.3191 20.7622 15.9994 20.7622C16.6796 20.7622 17.3599 21.4425 17.3599 22.1228C17.3599 22.8031 16.6796 23.4833 15.9994 23.4833ZM19.1286 14.6398C18.8565 15.0479 18.5844 15.4561 18.1762 15.8643C17.496 16.6806 16.9517 17.3609 16.9517 18.0411C16.9517 18.5854 16.5436 19.1296 15.8633 19.1296C15.183 19.1296 14.7749 18.7214 14.7749 18.0411C14.7749 16.6806 15.7272 15.4561 16.4075 14.5037C16.6796 14.2316 16.9517 13.8235 17.2238 13.4153C17.3599 13.1432 17.496 12.8711 17.496 12.4629C17.496 11.5105 16.6796 10.8303 15.8633 10.8303C15.047 10.8303 14.2306 11.6466 14.2306 12.4629C14.2306 13.0071 13.8225 13.5513 13.1422 13.5513C12.4619 13.5513 12.1898 13.1432 12.1898 12.599C12.1898 10.5582 13.8225 8.78944 15.9994 8.78944C18.1762 8.78944 19.8089 10.4221 19.8089 12.599C19.8089 13.2792 19.5368 13.9595 19.1286 14.6398Z" fill="currentColor"/>
</g>
</svg>
