<svg width="18" height="18" viewBox="0 0 18 18" fill="none" xmlns="http://www.w3.org/2000/svg">
<g id="Rotate Left">
<path id="Subtract" fill-rule="evenodd" clip-rule="evenodd" d="M14 9C14 10.8456 13.5389 12.0462 12.7919 12.7926C12.0447 13.5391 10.8426 14 8.99477 14C7.14696 14 5.94481 13.5391 5.19765 12.7926C4.52034 12.1159 4.07806 11.0657 4.00144 9.49984C3.98794 9.22403 3.76569 9 3.48954 9V9C3.2134 9 2.98817 9.22529 3.00048 9.50115C3.16403 13.1671 5.16213 15 8.99477 15C12.9983 15 15 13 15 9C15 5 12.9983 3 8.99477 3C5.98766 3 4.10991 4.12837 3.36151 6.38511C3.25863 6.69533 3.50243 7 3.82926 7V7C4.0603 7 4.25967 6.84353 4.33606 6.62549C4.54367 6.03289 4.83742 5.56734 5.19765 5.20741C5.94481 4.4609 7.14696 4 8.99477 4C10.8426 4 12.0447 4.4609 12.7919 5.20741C13.5389 5.95377 14 7.15436 14 9Z" fill="currentColor"/>
<path id="Vector 99" d="M3.75 3.75V6.75H6.75" stroke="currentColor" stroke-linecap="round" stroke-linejoin="round"/>
</g>
</svg>
