<svg width="57" height="17" viewBox="0 0 57 17" fill="none" xmlns="http://www.w3.org/2000/svg">
<g id="sepa-2 1" clip-path="url(#clip0_258_12482)">
<path id="Vector" d="M13.5272 6.04143H9.8392C9.8392 5.41051 9.76823 4.98716 9.6263 4.77137C9.40694 4.45253 8.8015 4.29302 7.80999 4.29285C6.84727 4.29285 6.20985 4.3847 5.89775 4.56841C5.58637 4.753 5.4306 5.15411 5.43044 5.77174C5.43044 6.33072 5.56863 6.69863 5.84501 6.87548C6.04332 7.00066 6.30542 7.07424 6.63131 7.09623L7.37492 7.15092C8.96906 7.26091 9.96451 7.33832 10.3612 7.38314C11.6219 7.51563 12.5357 7.86507 13.1027 8.43145C13.5487 8.87341 13.8143 9.45091 13.8996 10.1639C13.9522 10.644 13.977 11.1269 13.974 11.6101C13.974 12.8468 13.8608 13.752 13.6345 14.3257C13.2242 15.3787 12.3015 16.0445 10.8664 16.3232C10.265 16.4409 9.34548 16.4999 8.10788 16.5002C6.04247 16.5002 4.60345 16.3716 3.79081 16.1144C2.79361 15.7988 2.13592 15.1597 1.81772 14.197C1.6403 13.6608 1.55197 12.7679 1.55274 11.5182H5.24034V11.8379C5.24034 12.5048 5.42397 12.9337 5.79123 13.1246C6.07997 13.2642 6.39471 13.3356 6.71297 13.3337H8.06892C8.76067 13.3337 9.20191 13.2967 9.39264 13.2226C9.73176 13.0838 9.95439 12.8598 10.0605 12.5504C10.123 12.3095 10.1515 12.0604 10.1452 11.811C10.1452 11.135 9.90882 10.7234 9.43607 10.5761C9.25865 10.5179 8.43637 10.437 6.96924 10.3335C5.79055 10.2458 4.97198 10.1611 4.51355 10.0794C3.30622 9.8439 2.50177 9.35884 2.10019 8.62419C1.74692 7.99949 1.57048 7.05463 1.57088 5.78959C1.57088 4.82696 1.66625 4.05514 1.85698 3.47413C2.04771 2.89312 2.35509 2.45191 2.77914 2.15052C3.40129 1.6872 4.19644 1.41517 5.16461 1.33444C5.9708 1.26119 6.86505 1.22426 7.84737 1.22362C9.39494 1.22362 10.4978 1.31596 11.1559 1.50063C12.7608 1.9502 13.5632 3.20952 13.5632 5.27859C13.5632 5.44825 13.5512 5.70264 13.5273 6.04175M29.7434 16.5004V1.14258H37.1286C38.1416 1.14258 38.9139 1.22878 39.4456 1.40117C40.6603 1.7978 41.4759 2.61018 41.8925 3.8383C42.108 4.48297 42.2158 5.45329 42.2159 6.74928C42.2159 8.30713 42.0972 9.42673 41.8597 10.1081C41.386 11.4557 40.4123 12.2309 38.9386 12.4335C38.7655 12.4639 38.0287 12.4902 36.7282 12.5125L36.0704 12.5353H33.7073V16.5004H29.7434ZM33.7075 8.97285H36.1788C36.9623 8.94342 37.4395 8.87995 37.6103 8.78244C37.8445 8.64816 38.0019 8.37878 38.0801 7.9757C38.1303 7.70748 38.1554 7.30821 38.1553 6.77791C38.1553 6.12828 38.1054 5.64644 38.0055 5.33239C37.863 4.89161 37.5214 4.6228 36.9808 4.52596C36.8737 4.51133 36.6174 4.50382 36.2119 4.50345H33.7078L33.7075 8.97285ZM50.6773 13.8462H45.3774L44.6652 16.5004H40.5643L44.9897 1.14258H50.9691L55.4486 16.5004H51.4336L50.6773 13.8462ZM49.8902 10.8545L48.0327 4.19717L46.2302 10.8545H49.8902Z" fill="#10298E"/>
<path id="Vector_2" d="M24.2719 3.30306C25.0489 3.30267 25.8161 3.48345 26.5174 3.83215C27.2186 4.18086 27.8363 4.68868 28.3251 5.31843L29.1795 3.40807C27.7842 2.03505 25.9369 1.27273 24.0184 1.27835C20.8949 1.27835 18.2231 3.24573 17.1268 6.03038H15.4606L14.4766 8.22966H16.6199C16.6029 8.43464 16.594 8.64009 16.5932 8.84599C16.5933 9.09558 16.6054 9.34501 16.6295 9.59332H15.5526L14.5689 11.7932H17.1776C18.3052 14.5074 20.9437 16.4128 24.0181 16.4128C25.5046 16.4165 26.9586 15.9601 28.1962 15.1014V12.4055C27.6658 13.0377 27.0021 13.5332 26.2572 13.8531C25.5124 14.173 24.7066 14.3086 23.903 14.2493C23.0995 14.1899 22.32 13.9373 21.6258 13.5112C20.9316 13.0851 20.3415 12.4971 19.9018 11.7932H25.3641L26.3477 9.59332H19.0982C19.0341 9.14175 19.0238 8.68364 19.0674 8.22941H26.9579L27.9413 6.03038H19.7491C20.207 5.20172 20.8661 4.51339 21.66 4.03459C22.454 3.55579 23.3548 3.3034 24.272 3.30281" fill="#FFBE00"/>
<path id="Vector_3" d="M24.2719 3.36862C25.0395 3.36787 25.7976 3.54634 26.4905 3.89092C27.1833 4.2355 27.7934 4.73745 28.276 5.35996L28.3397 5.44195L28.3829 5.34627L29.2372 3.43585L29.2562 3.39227L29.2234 3.35954C27.9675 2.13253 26.3501 1.38517 24.6348 1.23921C22.9195 1.09326 21.2074 1.55731 19.7773 2.55576C18.5665 3.40027 17.6236 4.60091 17.0684 6.00524L17.1268 5.96431H15.4198L15.403 6.00215L14.4193 8.20188L14.377 8.29579H16.62L16.5569 8.22414C16.5399 8.43097 16.531 8.63827 16.5302 8.84602C16.5302 9.09288 16.5423 9.34706 16.5665 9.6001L16.6296 9.52757H15.5127L15.4959 9.56541L14.5115 11.7651L14.4697 11.8591H17.1778L17.1197 11.8193C18.2956 14.6495 21.0036 16.4785 24.0183 16.4785C25.5171 16.4826 26.9833 16.0226 28.231 15.1567L28.2587 15.1374V12.2302L28.1482 12.3619C27.6242 12.9863 26.9685 13.4757 26.2327 13.7917C25.4969 14.1077 24.7008 14.2416 23.907 14.183C23.1132 14.1244 22.3433 13.8749 21.6574 13.4539C20.9716 13.033 20.3887 12.4522 19.9542 11.7569L19.9015 11.8593H25.4045L25.4214 11.8215L26.4051 9.62123L26.4474 9.52763H19.0979L19.1607 9.5844C19.0973 9.13807 19.087 8.68527 19.1301 8.23632L19.067 8.29567H26.9982L27.015 8.25782L27.9985 6.05822L28.0408 5.96431H19.7489L19.8034 6.06346C20.2576 5.24644 20.9092 4.56775 21.6932 4.09494C22.4771 3.62214 23.3662 3.37172 24.2719 3.36862ZM19.7489 6.09619H27.941L27.8835 6.00228L26.9003 8.20188L26.9575 8.16404H19.0098L19.0037 8.2237C18.9605 8.68324 18.971 9.14656 19.0351 9.60344L19.0435 9.66021H26.3477L26.2905 9.56604L25.307 11.7656L25.3639 11.7278H19.784L19.8486 11.8296C20.2938 12.5418 20.8911 13.1368 21.5937 13.568C22.2964 13.9991 23.0852 14.2548 23.8985 14.3148C24.7117 14.3749 25.5272 14.2378 26.2811 13.9142C27.0351 13.5906 27.7069 13.0893 28.2439 12.4497L28.1328 12.4061V15.1021L28.1608 15.0477C26.9339 15.8988 25.4923 16.3511 24.0186 16.3473C21.0542 16.3473 18.3921 14.5492 17.2364 11.7672L17.2196 11.7277H14.5691L14.6268 11.8223L15.6099 9.6211L15.5524 9.6597H16.6998L16.6926 9.5866C16.6687 9.33798 16.6563 9.08834 16.6563 8.84596C16.6563 8.65965 16.6652 8.45959 16.6829 8.23524L16.6886 8.16385H14.4768L14.5337 8.25776L15.5175 6.05816L15.4605 6.096H17.1688L17.1848 6.05507C17.731 4.67495 18.6579 3.49503 19.848 2.66493C21.2542 1.68354 22.9377 1.22749 24.6242 1.37104C26.3107 1.5146 27.9009 2.24931 29.1359 3.45553L29.1219 3.37947L28.268 5.29033L28.3746 5.27627C27.8348 4.58179 27.141 4.03479 26.3531 3.68248C25.5652 3.33018 24.7069 3.18317 23.8523 3.25415C22.9977 3.32513 22.1725 3.61197 21.448 4.0899C20.7236 4.56783 20.1215 5.22247 19.694 5.99729L19.639 6.09644L19.7489 6.09619Z" fill="#10298E"/>
</g>
<defs>
<clipPath id="clip0_258_12482">
<rect width="56" height="16" fill="white" transform="translate(0.5 0.5)"/>
</clipPath>
</defs>
</svg>
