<svg width="24" height="24" viewBox="0 0 24 24" fill="none" xmlns="http://www.w3.org/2000/svg">
<g id="shop-svgrepo-com 1">
<path id="Vector" fill-rule="evenodd" clip-rule="evenodd" d="M7.80938 3.00002C7.09416 2.99978 6.60338 2.99962 6.16719 3.11796C5.25137 3.36643 4.4852 3.98804 4.0594 4.82805C3.85661 5.22815 3.76051 5.70445 3.62048 6.39857L3.06721 9.13645C2.8604 10.1598 3.14378 11.1495 3.74015 11.8916V14.3173C3.74013 15.9414 3.74012 17.2277 3.87688 18.2345C4.01764 19.2705 4.31421 20.1092 4.98246 20.7705C5.65072 21.4319 6.49809 21.7253 7.54501 21.8647C8.56228 22 9.86209 22 11.5032 22H12.4969C14.1378 22 15.4377 22 16.455 21.8647C17.5019 21.7253 18.3493 21.4319 19.0175 20.7705C19.6858 20.1092 19.9823 19.2705 20.1231 18.2345C20.2599 17.2277 20.2599 15.9414 20.2599 14.3173V11.8916C20.8562 11.1495 21.1396 10.1598 20.9328 9.13645L20.3795 6.39857C20.2395 5.70445 20.1434 5.22815 19.9406 4.82805C19.5148 3.98804 18.7486 3.36643 17.8328 3.11796C17.3966 2.99962 16.9058 2.99978 16.1906 3.00002H7.80938ZM17.5974 13.1628C18.0697 13.1628 18.516 13.0687 18.9204 12.8998V14.2675C18.9204 15.9525 18.919 17.1497 18.7956 18.0578C18.6748 18.9469 18.4483 19.4592 18.0704 19.8332C17.6925 20.2072 17.1749 20.4314 16.2765 20.5509C15.8787 20.6038 15.426 20.6341 14.9021 20.6514V18.2157C14.9021 17.8271 14.9021 17.4918 14.8769 17.2167C14.8502 16.9259 14.7913 16.6378 14.6329 16.3663C14.4565 16.064 14.2029 15.813 13.8976 15.6385C13.6232 15.4818 13.3321 15.4234 13.0382 15.397C12.7602 15.3721 12.4215 15.3721 12.0288 15.3721H11.9712C11.5785 15.3721 11.2398 15.3721 10.9618 15.397C10.6678 15.4234 10.3768 15.4818 10.1025 15.6385C9.79703 15.813 9.5434 16.064 9.36706 16.3663C9.20867 16.6378 9.14969 16.9259 9.12305 17.2167C9.09785 17.4918 9.09787 17.8271 9.09789 18.2157V20.6514C8.57396 20.6341 8.12128 20.6038 7.72349 20.5509C6.8251 20.4314 6.30749 20.2072 5.92959 19.8332C5.55168 19.4592 5.32516 18.9469 5.20438 18.0578C5.081 17.1497 5.07958 15.9525 5.07958 14.2675V12.8997C5.48397 13.0687 5.93027 13.1628 6.40254 13.1628C7.54009 13.1628 8.55715 12.6075 9.17652 11.7452C9.81008 12.6007 10.833 13.1628 11.9998 13.1628C13.1667 13.1628 14.1897 12.6006 14.8233 11.7449C15.4426 12.6074 16.4598 13.1628 17.5974 13.1628ZM10.4373 20.6727C10.7842 20.6743 11.1554 20.6744 11.5535 20.6744H12.4465C12.8447 20.6744 13.2159 20.6743 13.5627 20.6727V18.2442C13.5627 17.819 13.562 17.5445 13.543 17.3364C13.5247 17.1374 13.494 17.0652 13.473 17.0291C13.4142 16.9283 13.3296 16.8447 13.2278 16.7865C13.1913 16.7656 13.1184 16.7352 12.9173 16.7171C12.7071 16.6983 12.4296 16.6977 12 16.6977C11.5704 16.6977 11.293 16.6983 11.0827 16.7171C10.8817 16.7352 10.8086 16.7656 10.7722 16.7865C10.6704 16.8447 10.5858 16.9283 10.527 17.0291C10.506 17.0652 10.4752 17.1374 10.457 17.3364C10.438 17.5445 10.4373 17.819 10.4373 18.2442V20.6727ZM9.02739 4.32563H7.90821C7.05592 4.32563 6.76074 4.33141 6.52131 4.39638C5.97182 4.54545 5.51212 4.91841 5.25665 5.42243C5.14533 5.64204 5.0817 5.92736 4.91455 6.75445L4.38063 9.39642C4.12545 10.6591 5.10135 11.8372 6.40254 11.8372C7.46186 11.8372 8.34885 11.0429 8.45425 9.99966L8.5155 9.39353L8.51905 9.3564L9.02739 4.32563ZM9.84909 9.51747L10.3737 4.32563H13.6261L14.1478 9.4883C14.2748 10.7459 13.2769 11.8372 11.9998 11.8372C10.7326 11.8372 9.74022 10.7627 9.84909 9.51747ZM17.4787 4.39638C17.2393 4.33141 16.9441 4.32563 16.0918 4.32563H14.9724L15.5458 9.99966C15.6511 11.0429 16.5381 11.8372 17.5974 11.8372C18.8986 11.8372 19.8746 10.6591 19.6193 9.39642L19.0855 6.75445C18.9183 5.92736 18.8547 5.64204 18.7434 5.42243C18.4879 4.91841 18.0282 4.54545 17.4787 4.39638Z" fill="currentColor"/>
</g>
</svg>
