<svg width="18" height="18" viewBox="0 0 18 18" fill="none" xmlns="http://www.w3.org/2000/svg">
<g id="Trash Bin">
<g id="Vector">
<path fill-rule="evenodd" clip-rule="evenodd" d="M4.39965 6.11556C4.72024 6.12332 4.97379 6.38783 4.96598 6.70636L4.38551 6.69231L3.80504 6.67826C3.81285 6.35972 4.07907 6.1078 4.39965 6.11556ZM4.38551 6.69231C3.80504 6.67826 3.80504 6.67826 3.80504 6.67826L3.80426 6.71106L3.80217 6.80428C3.80041 6.88533 3.79797 7.00294 3.79526 7.14963C3.78984 7.44296 3.78334 7.85285 3.77901 8.31935C3.77037 9.24978 3.77023 10.4149 3.80529 11.3296C3.84363 12.3302 3.94685 13.6252 4.03203 14.5895C4.12821 15.6786 5.04883 16.5 6.14023 16.5H11.8598C12.9512 16.5 13.8718 15.6786 13.968 14.5895C14.0532 13.6252 14.1564 12.3302 14.1947 11.3296C14.2298 10.4149 14.2296 9.24978 14.221 8.31935C14.2167 7.85285 14.2102 7.44296 14.2047 7.14963C14.202 7.00294 14.1996 6.88533 14.1978 6.80428L14.1957 6.71106L14.195 6.67886C14.1872 6.36033 13.9209 6.1078 13.6003 6.11556C13.2798 6.12332 13.0262 6.38783 13.034 6.70636L13.4039 6.6974C13.034 6.70636 13.034 6.70636 13.034 6.70636L13.0348 6.73766L13.0368 6.82924C13.0386 6.90915 13.041 7.02549 13.0436 7.1708C13.049 7.46147 13.0555 7.86776 13.0597 8.33C13.0684 9.25704 13.0682 10.3996 13.0343 11.2857C12.9971 12.2559 12.8961 13.5268 12.8111 14.4887C12.7684 14.9731 12.3581 15.3462 11.8598 15.3462H6.14023C5.64194 15.3462 5.23165 14.9731 5.18887 14.4887C5.10392 13.5268 5.00291 12.2559 4.96574 11.2857C4.93178 10.3996 4.93164 9.25704 4.94025 8.33C4.94455 7.86776 4.95099 7.46147 4.95635 7.1708C4.95904 7.02549 4.96145 6.90915 4.96319 6.82924L4.96524 6.73766L4.96598 6.70636L4.38551 6.69231Z" fill="currentColor"/>
<path fill-rule="evenodd" clip-rule="evenodd" d="M3 4.38462C3 4.06599 3.25996 3.80769 3.58065 3.80769H14.4194C14.74 3.80769 15 4.06599 15 4.38462C15 4.70324 14.74 4.96154 14.4194 4.96154H3.58065C3.25996 4.96154 3 4.70324 3 4.38462Z" fill="currentColor"/>
<path fill-rule="evenodd" clip-rule="evenodd" d="M6.19241 2.61991C6.56242 1.93058 7.28469 1.5 8.07097 1.5H9.92903C10.7153 1.5 11.4376 1.93058 11.8076 2.61991L12.6091 4.11312C12.76 4.39426 12.653 4.74372 12.37 4.89367C12.0871 5.04361 11.7353 4.93725 11.5844 4.65611L10.7829 3.1629C10.6147 2.84957 10.2864 2.65385 9.92903 2.65385H8.07097C7.71357 2.65385 7.38527 2.84957 7.21708 3.1629L6.41556 4.65611C6.26465 4.93725 5.91294 5.04361 5.62998 4.89367C5.34703 4.74372 5.23998 4.39426 5.39089 4.11312L6.19241 2.61991Z" fill="currentColor"/>
</g>
</g>
</svg>
