<svg width="18" height="18" viewBox="0 0 18 18" fill="none" xmlns="http://www.w3.org/2000/svg">
<path d="M14.4 13.0575C14.0005 13.6366 13.4708 14.1141 12.8535 14.4514C12.2361 14.7888 11.5482 14.9767 10.845 15C8.835 15 7.095 13.5 6.345 11.25H10.5C10.6989 11.25 10.8897 11.171 11.0303 11.0303C11.171 10.8897 11.25 10.6989 11.25 10.5C11.25 10.3011 11.171 10.1103 11.0303 9.96967C10.8897 9.82902 10.6989 9.75 10.5 9.75H6.0375C6.0375 9.5025 6 9.2475 6 9C6 8.7525 6 8.4975 6.0375 8.25H10.5C10.6989 8.25 10.8897 8.17098 11.0303 8.03033C11.171 7.88968 11.25 7.69891 11.25 7.5C11.25 7.30109 11.171 7.11032 11.0303 6.96967C10.8897 6.82902 10.6989 6.75 10.5 6.75H6.3525C7.1025 4.5 8.835 3 10.8525 3C11.5544 3.0245 12.2408 3.21294 12.8568 3.55024C13.4728 3.88755 14.0013 4.36435 14.4 4.9425C14.4529 5.03364 14.5245 5.1126 14.61 5.17423C14.6955 5.23587 14.793 5.27879 14.8962 5.3002C14.9994 5.32162 15.1059 5.32104 15.2089 5.29851C15.3118 5.27598 15.4089 5.232 15.4937 5.16945C15.5785 5.10689 15.6492 5.02716 15.7012 4.93545C15.7531 4.84375 15.7851 4.74212 15.7952 4.63721C15.8052 4.53229 15.793 4.42644 15.7594 4.32655C15.7257 4.22667 15.6714 4.13499 15.6 4.0575C15.0658 3.28589 14.3564 2.65183 13.5299 2.20728C12.7034 1.76273 11.7833 1.52035 10.845 1.5C8.025 1.5 5.595 3.63 4.7925 6.75H3C2.80109 6.75 2.61032 6.82902 2.46967 6.96967C2.32902 7.11032 2.25 7.30109 2.25 7.5C2.25 7.69891 2.32902 7.88968 2.46967 8.03033C2.61032 8.17098 2.80109 8.25 3 8.25H4.5375C4.5375 8.4975 4.5375 8.7525 4.5375 9C4.5375 9.2475 4.5375 9.5025 4.5375 9.75H3C2.80109 9.75 2.61032 9.82902 2.46967 9.96967C2.32902 10.1103 2.25 10.3011 2.25 10.5C2.25 10.6989 2.32902 10.8897 2.46967 11.0303C2.61032 11.171 2.80109 11.25 3 11.25H4.7925C5.61 14.37 8.025 16.5 10.845 16.5C11.7833 16.4796 12.7034 16.2373 13.5299 15.7927C14.3564 15.3482 15.0658 14.7141 15.6 13.9425C15.6928 13.7827 15.7233 13.5944 15.6858 13.4135C15.6483 13.2326 15.5453 13.0719 15.3966 12.9622C15.2479 12.8526 15.064 12.8017 14.8801 12.8192C14.6962 12.8368 14.5252 12.9217 14.4 13.0575Z" fill="currentColor"/>
</svg>
