<svg width="22" height="21" viewBox="0 0 19 18" fill="none" xmlns="http://www.w3.org/2000/svg">
<path fill-rule="evenodd" clip-rule="evenodd" d="M2.57692 9.19355C2.89555 9.19355 3.15385 9.45351 3.15385 9.77419V12.5963C3.15385 13.095 3.52667 13.5037 4.0106 13.5447C5.4753 13.6691 7.7897 13.8387 9.5 13.8387C11.2103 13.8387 13.5247 13.6691 14.9894 13.5447C15.4733 13.5037 15.8462 13.095 15.8462 12.5963V9.77419C15.8462 9.45351 16.1045 9.19355 16.4231 9.19355C16.7417 9.19355 17 9.45351 17 9.77419V12.5963C17 13.6885 16.1777 14.6093 15.0864 14.7019C13.6205 14.8264 11.2634 15 9.5 15C7.73657 15 5.37952 14.8264 3.9136 14.7019C2.82229 14.6093 2 13.6885 2 12.5963V9.77419C2 9.45351 2.2583 9.19355 2.57692 9.19355Z" fill="currentColor"/>
<path fill-rule="evenodd" clip-rule="evenodd" d="M9.09205 3.17007C9.31736 2.94331 9.68264 2.94331 9.90795 3.17007L12.2156 5.49265C12.4409 5.7194 12.4409 6.08705 12.2156 6.3138C11.9903 6.54056 11.625 6.54056 11.3997 6.3138L10.0769 4.98245V9.77419C10.0769 10.0949 9.81863 10.3548 9.5 10.3548C9.18137 10.3548 8.92308 10.0949 8.92308 9.77419V4.98245L7.60025 6.3138C7.37495 6.54056 7.00966 6.54056 6.78436 6.3138C6.55906 6.08705 6.55906 5.7194 6.78436 5.49265L9.09205 3.17007Z" fill="currentColor"/>
</svg>
