<svg width="21" height="20" viewBox="0 0 21 20" fill="none" xmlns="http://www.w3.org/2000/svg">
<g id="User">
<g id="Vector">
<path fill-rule="evenodd" clip-rule="evenodd" d="M10.5007 2.94904C8.95663 2.94904 7.70495 4.1927 7.70495 5.72682C7.70495 7.26095 8.95663 8.5046 10.5007 8.5046C12.0447 8.5046 13.2963 7.26095 13.2963 5.72682C13.2963 4.1927 12.0447 2.94904 10.5007 2.94904ZM6.41463 5.72682C6.41463 3.48464 8.244 1.66699 10.5007 1.66699C12.7573 1.66699 14.5867 3.48464 14.5867 5.72682C14.5867 7.969 12.7573 9.78665 10.5007 9.78665C8.244 9.78665 6.41463 7.969 6.41463 5.72682Z" fill="currentColor"/>
<path fill-rule="evenodd" clip-rule="evenodd" d="M8.38913 12.7781C6.58602 12.7781 5.12431 14.2304 5.12431 16.022C5.12431 16.1161 5.14161 16.1825 5.15975 16.2211C5.17506 16.2538 5.1882 16.2631 5.19916 16.269C5.70055 16.5401 7.10633 17.0516 10.5007 17.0516C13.895 17.0516 15.3008 16.5401 15.8021 16.269C15.8131 16.2631 15.8262 16.2538 15.8416 16.2211C15.8597 16.1825 15.877 16.1161 15.877 16.022C15.877 14.2304 14.4153 12.7781 12.6122 12.7781H8.38913ZM3.83398 16.022C3.83398 13.5224 5.87339 11.4961 8.38913 11.4961H12.6122C15.1279 11.4961 17.1673 13.5224 17.1673 16.022C17.1673 16.4809 17.0001 17.0808 16.4189 17.3951C15.6489 17.8114 13.9972 18.3337 10.5007 18.3337C7.0041 18.3337 5.35237 17.8114 4.58242 17.3951C4.00118 17.0808 3.83398 16.4809 3.83398 16.022Z" fill="currentColor"/>
</g>
</g>
</svg>
