<svg width="32" height="32" viewBox="0 0 32 32" fill="none" xmlns="http://www.w3.org/2000/svg">
<path d="M16.0503 4.38672C9.46348 4.38672 4.10297 9.54982 4.10065 15.8951C4.0991 17.9243 4.65032 19.9047 5.69548 21.6489L4 27.6125L10.3352 26.0123C12.0975 26.9341 14.0569 27.4149 16.0457 27.4136H16.0503C22.6372 27.4136 27.9977 22.2497 28 15.9044C28.0015 12.8308 26.7597 9.93769 24.503 7.76298C22.247 5.58749 19.247 4.38749 16.0503 4.38672ZM16.0503 25.4696H16.0465C14.2643 25.4696 12.5161 25.0081 10.991 24.1364L10.6271 23.9289L6.86916 24.8781L7.87252 21.3478L7.63639 20.9862C6.64457 19.4735 6.11659 17.7039 6.11742 15.8951C6.11974 10.6205 10.576 6.33072 16.0542 6.33072C18.7066 6.33149 21.2003 7.32788 23.0761 9.13562C24.952 10.9434 25.984 13.3472 25.9825 15.9036C25.9801 21.1782 21.5246 25.4696 16.0495 25.4696H16.0503ZM21.4983 18.3044C21.1995 18.1612 19.7316 17.4652 19.4575 17.3684C19.1843 17.2732 18.9853 17.2236 18.7863 17.5116C18.5881 17.7996 18.0152 18.4476 17.8418 18.6388C17.6668 18.8308 17.4926 18.8541 17.1938 18.7108C16.895 18.5668 15.9326 18.2634 14.793 17.2832C13.905 16.5214 13.3058 15.58 13.1316 15.2912C12.9574 15.004 13.113 14.8484 13.2625 14.7052C13.3964 14.5774 13.5613 14.3699 13.7099 14.2019C13.8586 14.0339 13.9081 13.9139 14.0088 13.7219C14.1079 13.5307 14.0583 13.3619 13.9832 13.2187C13.9081 13.0739 13.312 11.6587 13.0619 11.0835C12.8204 10.523 12.5742 10.5981 12.3907 10.5888C12.2165 10.581 12.0183 10.5787 11.8178 10.5787C11.6204 10.5787 11.296 10.6507 11.0219 10.9387C10.7486 11.2267 9.97677 11.9219 9.97677 13.3372C9.97677 14.7532 11.0467 16.1204 11.1961 16.3124C11.3455 16.5036 13.3019 19.4092 16.2973 20.6556C17.0095 20.9506 17.5654 21.1279 17.9997 21.261C18.7151 21.4801 19.3662 21.4484 19.8803 21.3748C20.4532 21.292 21.647 20.6796 21.8947 20.0084C22.144 19.3372 22.144 18.7612 22.0697 18.6412C21.9969 18.5212 21.7972 18.4492 21.4983 18.3044Z" fill="#D3F7E6"/>
</svg>
