<svg width="41" height="50" viewBox="0 0 41 50" fill="none" xmlns="http://www.w3.org/2000/svg">
<mask id="mask0_1360_14847" style="mask-type:luminance" maskUnits="userSpaceOnUse" x="13" y="15" width="24" height="28">
<path d="M36.1607 42.6353H13.2188V15.5488H36.1607V42.6353Z" fill="#009DE2"/>
</mask>
<g mask="url(#mask0_1360_14847)">
<path fill-rule="evenodd" clip-rule="evenodd" d="M18.891 15.5488H28.9853C34.4043 15.5488 36.4442 18.2648 36.1293 22.2608C35.6094 28.8487 31.5865 32.4911 26.2488 32.4911H23.555C22.8242 32.4911 22.3313 32.9699 22.1319 34.2694L20.9766 41.8219C20.9026 42.3119 20.6404 42.6005 20.2501 42.6357H13.9195C13.324 42.6357 13.1118 42.1837 13.2685 41.2066L17.1332 16.9822C17.2885 16.0107 17.8241 15.5488 18.891 15.5488Z" fill="#009DE2"/>
</g>
<mask id="mask1_1360_14847" style="mask-type:luminance" maskUnits="userSpaceOnUse" x="6" y="7" width="28" height="32">
<path d="M6 38.6203V7.21094H33.3029V38.6202H6V38.6203Z" fill="#113984"/>
</mask>
<g mask="url(#mask1_1360_14847)">
<path fill-rule="evenodd" clip-rule="evenodd" d="M12.5774 7.21094H22.6816C25.5278 7.21094 28.9026 7.30244 31.1604 9.27364C32.669 10.5901 33.461 12.6894 33.2773 14.9408C32.6576 22.5791 28.0421 26.8551 21.8539 26.8551H16.8709C16.0233 26.8551 15.4606 27.4127 15.2213 28.9192L13.831 37.6769C13.7412 38.2443 13.492 38.5794 13.0375 38.6203H6.81368C6.12278 38.6203 5.87638 38.0979 6.05728 36.9645L10.5403 8.87374C10.7198 7.74734 11.341 7.21094 12.5774 7.21094Z" fill="#113984"/>
</g>
<path fill-rule="evenodd" clip-rule="evenodd" d="M15.3672 28.0357L17.1322 16.9802C17.2875 16.0087 17.8245 15.5469 18.8901 15.5469H28.9829C30.6539 15.5469 32.0043 15.8059 33.0628 16.2819C32.0471 23.0782 27.6068 26.8544 21.7918 26.8544H16.8074C16.1521 26.8544 15.6621 27.1867 15.3672 28.0357Z" fill="#172C70"/>
</svg>
