<svg width="150" height="150" viewBox="0 0 150 150" fill="none" xmlns="http://www.w3.org/2000/svg">
<rect width="150" height="150" rx="30" fill="#EEF2F8"/>
<path fill-rule="evenodd" clip-rule="evenodd" d="M75.0001 50.3202C70.5526 50.3202 64.5804 50.8083 60.4034 51.2134C58.6702 51.3815 57.3175 52.7545 57.1833 54.4953C56.768 59.8842 56.1829 68.6204 56.1829 74.9997C56.1829 81.379 56.768 90.1152 57.1833 95.5041C57.3175 97.2448 58.6702 98.6179 60.4034 98.786C64.5804 99.191 70.5526 99.6792 75.0001 99.6792C79.4476 99.6792 85.4198 99.191 89.5968 98.786C91.33 98.6179 92.6826 97.2448 92.8168 95.5041C93.2322 90.1152 93.8173 81.379 93.8173 74.9997C93.8173 68.6204 93.2322 59.8842 92.8168 54.4953C92.6826 52.7545 91.33 51.3815 89.5968 51.2134C85.4198 50.8083 79.4476 50.3202 75.0001 50.3202ZM59.9647 46.7474C64.1527 46.3413 70.3146 45.833 75.0001 45.833C79.6856 45.833 85.8474 46.3413 90.0354 46.7474C93.9669 47.1287 97.0193 50.2548 97.3198 54.1527C97.7353 59.5434 98.3334 68.4317 98.3334 74.9997C98.3334 81.5676 97.7353 90.4559 97.3198 95.8467C97.0193 99.7446 93.9669 102.871 90.0354 103.252C85.8474 103.658 79.6856 104.166 75.0001 104.166C70.3146 104.166 64.1527 103.658 59.9647 103.252C56.0333 102.871 52.9808 99.7446 52.6804 95.8467C52.2649 90.4559 51.6667 81.5676 51.6667 74.9997C51.6667 68.4317 52.2649 59.5434 52.6804 54.1527C52.9808 50.2548 56.0333 47.1287 59.9647 46.7474Z" fill="#246CDA"/>
<path fill-rule="evenodd" clip-rule="evenodd" d="M63.7098 80.9826C63.7098 82.2217 64.7207 83.2262 65.9678 83.2262H84.0323C85.2794 83.2262 86.2904 82.2217 86.2904 80.9826C86.2904 79.7435 85.2794 78.739 84.0323 78.739H65.9678C64.7207 78.739 63.7098 79.7435 63.7098 80.9826Z" fill="#246CDA"/>
<path fill-rule="evenodd" clip-rule="evenodd" d="M63.7098 69.0168C63.7098 70.2559 64.7207 71.2604 65.9678 71.2604H75.0001C76.2472 71.2604 77.2581 70.2559 77.2581 69.0168C77.2581 67.7777 76.2472 66.7732 75.0001 66.7732H65.9678C64.7207 66.7732 63.7098 67.7777 63.7098 69.0168Z" fill="#246CDA"/>
</svg>
