<svg width="151" height="150" viewBox="0 0 151 150" fill="none" xmlns="http://www.w3.org/2000/svg">
<rect x="0.5" width="150" height="150" rx="30" fill="#F9F6D7"/>
<path d="M105.188 57.8125H83.3125L87.6875 47.5C88 46.5625 87.6875 45.9375 86.75 45.3125C85.8125 45 85.1875 45.3125 84.5625 46.25L82.0625 51.5625H45.8125C41.4375 51.5625 38 55.3125 38 59.375V81.25C38 85.625 41.4375 89.0625 45.8125 89.0625H47.375V96.875C47.375 97.5 47.6875 98.125 48.3125 98.125C48.625 98.125 48.625 98.4375 48.9375 98.4375C49.25 98.4375 49.5625 98.4375 49.875 98.125L62.0625 89.0625H66.125L61.75 99.375C61.4375 100.313 61.75 100.938 62.6875 101.563H63.3125C63.9375 101.563 64.5625 101.25 64.875 100.625L67.375 95.3125H89.25L101.437 104.375C101.75 104.688 102.062 104.688 102.375 104.688C102.688 104.688 103 104.688 103 104.375C103.625 104.063 103.938 103.438 103.938 103.125V95.3125H105.5C109.875 95.3125 113.312 91.875 113.312 87.5V65.625C113 61.25 109.562 57.8125 105.188 57.8125ZM61.4375 85.9375C61.125 85.9375 60.8125 85.9375 60.5 86.25L50.5 93.75V87.5C50.5 86.5625 49.875 85.9375 48.9375 85.9375H45.8125C43.3125 85.9375 41.125 83.75 41.125 81.25V59.375C41.125 56.875 43.3125 54.6875 45.8125 54.6875H81.125L67.375 85.9375H61.4375ZM109.875 87.5C109.875 90 107.688 92.1875 105.188 92.1875H102.062C101.125 92.1875 100.5 92.8125 100.5 93.75V100L90.5 92.5C90.1875 92.1875 89.875 92.1875 89.5625 92.1875H68.3125L82.0625 60.9375H105.5C108 60.9375 110.188 63.125 110.188 65.625V87.5H109.875Z" fill="#887D20"/>
<path d="M92.6875 67.1875H86.4375C83.9375 67.1875 81.75 69.375 81.75 71.875V84.375C81.75 85.3125 82.375 85.9375 83.3125 85.9375C84.25 85.9375 84.875 85.3125 84.875 84.375V79.6875H94.25V84.375C94.25 85.3125 94.875 85.9375 95.8125 85.9375C96.75 85.9375 97.375 85.3125 97.375 84.375V71.875C97.375 69.375 95.1875 67.1875 92.6875 67.1875ZM84.875 76.5625V71.875C84.875 70.9375 85.5 70.3125 86.4375 70.3125H92.6875C93.625 70.3125 94.25 70.9375 94.25 71.875V76.5625H84.875Z" fill="#887D20"/>
<path d="M68 80C65.5 78.75 63.3125 77.1875 61.75 75C63.9375 71.875 65.5 68.125 65.8125 64.0625H67.6875C68.625 64.0625 69.25 63.4375 69.25 62.5C69.25 61.5625 68.625 60.9375 67.6875 60.9375H61.4375V59.375C61.4375 58.4375 60.8125 57.8125 59.875 57.8125C58.9375 57.8125 58.3125 58.4375 58.3125 59.375V60.9375H52.0625C51.125 60.9375 50.5 61.5625 50.5 62.5C50.5 63.4375 51.125 64.0625 52.0625 64.0625H53.625C53.9375 67.8125 55.5 71.5625 57.6875 74.6875C56.75 75.625 55.5 76.5625 54.25 77.5C53.625 78.125 53.625 79.0625 53.9375 79.6875C54.25 80 54.875 80.3125 55.1875 80.3125C55.5 80.3125 55.8125 80.3125 56.125 80C57.375 79.0625 58.625 78.125 59.5625 77.1875C61.4375 79.375 63.9375 81.25 66.4375 82.5C66.75 82.5 67.0625 82.8125 67.0625 82.8125C67.6875 82.8125 68.3125 82.5 68.3125 81.875C68.9375 81.25 68.625 80.3125 68 80ZM62.6875 64.0625C62.375 67.1875 61.125 69.6875 59.5625 72.1875C58 69.6875 57.0625 66.875 56.75 64.0625H62.6875Z" fill="#887D20"/>
</svg>
