<svg width="151" height="150" viewBox="0 0 151 150" fill="none" xmlns="http://www.w3.org/2000/svg">
<rect x="0.5" width="150" height="150" rx="30" fill="#D3F7E6"/>
<path fill-rule="evenodd" clip-rule="evenodd" d="M75.5001 50.3202C70.096 50.3202 65.7151 54.673 65.7151 60.0424C65.7151 65.4118 70.096 69.7646 75.5001 69.7646C80.9042 69.7646 85.285 65.4118 85.285 60.0424C85.285 54.673 80.9042 50.3202 75.5001 50.3202ZM61.199 60.0424C61.199 52.1948 67.6018 45.833 75.5001 45.833C83.3983 45.833 89.8012 52.1948 89.8012 60.0424C89.8012 67.89 83.3983 74.2518 75.5001 74.2518C67.6018 74.2518 61.199 67.89 61.199 60.0424Z" fill="#0F5232"/>
<path fill-rule="evenodd" clip-rule="evenodd" d="M68.1098 84.7219C61.7989 84.7219 56.6829 89.8051 56.6829 96.0755C56.6829 96.4048 56.7434 96.6372 56.8069 96.7725C56.8605 96.8868 56.9065 96.9192 56.9449 96.94C58.6997 97.8888 63.62 99.6792 75.5001 99.6792C87.3802 99.6792 92.3004 97.8888 94.0553 96.94C94.0937 96.9192 94.1396 96.8868 94.1932 96.7725C94.2567 96.6372 94.3173 96.4048 94.3173 96.0755C94.3173 89.8051 89.2013 84.7219 82.8904 84.7219H68.1098ZM52.1667 96.0755C52.1667 87.3269 59.3047 80.2347 68.1098 80.2347H82.8904C91.6955 80.2347 98.8334 87.3269 98.8334 96.0755C98.8334 97.6816 98.2482 99.7815 96.2139 100.881C93.5191 102.338 87.738 104.166 75.5001 104.166C63.2622 104.166 57.4811 102.338 54.7863 100.881C52.7519 99.7815 52.1667 97.6816 52.1667 96.0755Z" fill="#0F5232"/>
</svg>
