<svg width="786" height="541" viewBox="0 0 786 541" fill="none" xmlns="http://www.w3.org/2000/svg">
<rect x="145" y="1" width="539" height="539" rx="269.5" stroke="#EEF2F8" stroke-opacity="0.5" stroke-width="2"/>
<rect x="216" y="72" width="397" height="397" rx="198.5" stroke="#EEF2F8" stroke-width="2"/>
<g filter="url(#filter0_d_48_1749)">
<rect x="289" y="145" width="251" height="251" rx="125.5" fill="url(#paint0_linear_48_1749)"/>
</g>
<mask id="mask0_48_1749" style="mask-type:alpha" maskUnits="userSpaceOnUse" x="289" y="145" width="251" height="251">
<rect opacity="0.2" x="289" y="145" width="251" height="251" rx="125.5" fill="url(#paint1_linear_48_1749)"/>
</mask>
<g mask="url(#mask0_48_1749)">
<path d="M379.637 133C405.258 133 425.829 140.246 441.35 154.737C457.117 168.973 465 188.676 465 213.845C465 238.759 457.24 257.827 441.719 271.047C426.199 284.012 405.628 290.495 380.007 290.495L378.528 319.859H333.075L331.228 255.03H347.857C369.29 255.03 385.796 252.107 397.375 246.259C408.954 240.412 414.743 229.734 414.743 214.226C414.743 203.04 411.54 194.142 405.135 187.532C398.976 180.922 390.477 177.617 379.637 177.617C368.305 177.617 359.436 180.795 353.03 187.151C346.871 193.507 343.792 202.278 343.792 213.464H295.013C294.767 197.956 297.969 184.1 304.621 171.897C311.273 159.694 321.004 150.161 333.815 143.296C346.871 136.432 362.146 133 379.637 133ZM355.617 411C346.256 411 338.495 408.076 332.336 402.229C326.424 396.128 323.468 388.628 323.468 379.73C323.468 370.832 326.424 363.459 332.336 357.612C338.495 351.51 346.256 348.46 355.617 348.46C364.732 348.46 372.246 351.51 378.159 357.612C384.072 363.459 387.028 370.832 387.028 379.73C387.028 388.628 384.072 396.128 378.159 402.229C372.246 408.076 364.732 411 355.617 411Z" fill="url(#paint2_linear_48_1749)"/>
</g>
<path d="M414.88 225C423.32 225 430.097 227.398 435.209 232.193C440.403 236.905 443 243.425 443 251.754C443 260 440.444 266.31 435.331 270.685C430.218 274.975 423.442 277.121 415.002 277.121L414.515 286.838H399.543L398.934 265.384H404.412C411.472 265.384 416.909 264.417 420.723 262.481C424.538 260.546 426.445 257.013 426.445 251.881C426.445 248.179 425.39 245.234 423.28 243.047C421.251 240.859 418.451 239.765 414.88 239.765C411.147 239.765 408.226 240.817 406.116 242.92C404.087 245.024 403.073 247.926 403.073 251.628H387.004C386.923 246.496 387.978 241.911 390.169 237.872C392.36 233.834 395.566 230.679 399.786 228.407C404.087 226.136 409.119 225 414.88 225ZM406.968 317C403.884 317 401.328 316.032 399.299 314.097C397.351 312.078 396.378 309.596 396.378 306.652C396.378 303.707 397.351 301.267 399.299 299.332C401.328 297.313 403.884 296.303 406.968 296.303C409.971 296.303 412.446 297.313 414.394 299.332C416.341 301.267 417.315 303.707 417.315 306.652C417.315 309.596 416.341 312.078 414.394 314.097C412.446 316.032 409.971 317 406.968 317Z" fill="url(#paint3_linear_48_1749)"/>
<g filter="url(#filter1_d_48_1749)">
<path d="M50 70C50 58.9543 58.9543 50 70 50H477V100C477 111.046 468.046 120 457 120H70C58.9543 120 50 111.046 50 100V70Z" fill="white" shape-rendering="crispEdges"/>
<rect x="74" y="69" width="32" height="32" rx="16" fill="url(#paint4_linear_48_1749)"/>
<path d="M95.517 78.7178L91.269 86.9078V91.2818H88.749V86.9078L84.483 78.7178H87.327L90.027 84.4598L92.709 78.7178H95.517Z" fill="white"/>
<path d="M123.166 78.918C124.558 78.918 125.752 79.17 126.748 79.674C127.744 80.178 128.506 80.904 129.034 81.852C129.562 82.8 129.826 83.928 129.826 85.236C129.826 86.532 129.562 87.654 129.034 88.602C128.506 89.538 127.744 90.258 126.748 90.762C125.752 91.254 124.558 91.5 123.166 91.5H119.44V78.918H123.166ZM123.166 90.456C124.918 90.456 126.25 90 127.162 89.088C128.086 88.164 128.548 86.88 128.548 85.236C128.548 83.58 128.086 82.29 127.162 81.366C126.25 80.43 124.918 79.962 123.166 79.962H120.7V90.456H123.166ZM136.451 91.644C135.527 91.644 134.693 91.44 133.949 91.032C133.217 90.612 132.635 90.024 132.203 89.268C131.783 88.5 131.573 87.606 131.573 86.586C131.573 85.566 131.789 84.678 132.221 83.922C132.653 83.154 133.241 82.566 133.985 82.158C134.729 81.738 135.563 81.528 136.487 81.528C137.411 81.528 138.245 81.738 138.989 82.158C139.745 82.566 140.333 83.154 140.753 83.922C141.185 84.678 141.401 85.566 141.401 86.586C141.401 87.594 141.185 88.482 140.753 89.25C140.321 90.018 139.727 90.612 138.971 91.032C138.215 91.44 137.375 91.644 136.451 91.644ZM136.451 90.546C137.099 90.546 137.699 90.402 138.251 90.114C138.803 89.814 139.247 89.37 139.583 88.782C139.931 88.182 140.105 87.45 140.105 86.586C140.105 85.722 139.937 84.996 139.601 84.408C139.265 83.808 138.821 83.364 138.269 83.076C137.717 82.776 137.117 82.626 136.469 82.626C135.821 82.626 135.221 82.776 134.669 83.076C134.117 83.364 133.673 83.808 133.337 84.408C133.013 84.996 132.851 85.722 132.851 86.586C132.851 87.45 133.013 88.182 133.337 88.782C133.673 89.37 134.111 89.814 134.651 90.114C135.203 90.402 135.803 90.546 136.451 90.546ZM156.953 78.918L152.921 86.604V91.5H151.661V86.604L147.593 78.918H149.015L152.291 85.452L155.549 78.918H156.953ZM163.099 91.644C162.175 91.644 161.341 91.44 160.597 91.032C159.865 90.612 159.283 90.024 158.851 89.268C158.431 88.5 158.221 87.606 158.221 86.586C158.221 85.566 158.437 84.678 158.869 83.922C159.301 83.154 159.889 82.566 160.633 82.158C161.377 81.738 162.211 81.528 163.135 81.528C164.059 81.528 164.893 81.738 165.637 82.158C166.393 82.566 166.981 83.154 167.401 83.922C167.833 84.678 168.049 85.566 168.049 86.586C168.049 87.594 167.833 88.482 167.401 89.25C166.969 90.018 166.375 90.612 165.619 91.032C164.863 91.44 164.023 91.644 163.099 91.644ZM163.099 90.546C163.747 90.546 164.347 90.402 164.899 90.114C165.451 89.814 165.895 89.37 166.231 88.782C166.579 88.182 166.753 87.45 166.753 86.586C166.753 85.722 166.585 84.996 166.249 84.408C165.913 83.808 165.469 83.364 164.917 83.076C164.365 82.776 163.765 82.626 163.117 82.626C162.469 82.626 161.869 82.776 161.317 83.076C160.765 83.364 160.321 83.808 159.985 84.408C159.661 84.996 159.499 85.722 159.499 86.586C159.499 87.45 159.661 88.182 159.985 88.782C160.321 89.37 160.759 89.814 161.299 90.114C161.851 90.402 162.451 90.546 163.099 90.546ZM178.86 81.672V91.5H177.6V89.772C177.312 90.384 176.868 90.852 176.268 91.176C175.668 91.5 174.996 91.662 174.252 91.662C173.076 91.662 172.116 91.302 171.372 90.582C170.628 89.85 170.256 88.794 170.256 87.414V81.672H171.498V87.27C171.498 88.338 171.762 89.154 172.29 89.718C172.83 90.282 173.562 90.564 174.486 90.564C175.434 90.564 176.19 90.264 176.754 89.664C177.318 89.064 177.6 88.182 177.6 87.018V81.672H178.86ZM196.018 78.918V91.5H194.758V85.614H187.936V91.5H186.676V78.918H187.936V84.57H194.758V78.918H196.018ZM198.317 86.568C198.317 85.56 198.515 84.678 198.911 83.922C199.319 83.154 199.877 82.566 200.585 82.158C201.305 81.738 202.115 81.528 203.015 81.528C203.951 81.528 204.755 81.744 205.427 82.176C206.111 82.608 206.603 83.16 206.903 83.832V81.672H208.163V91.5H206.903V89.322C206.591 89.994 206.093 90.552 205.409 90.996C204.737 91.428 203.933 91.644 202.997 91.644C202.109 91.644 201.305 91.434 200.585 91.014C199.877 90.594 199.319 90 198.911 89.232C198.515 88.464 198.317 87.576 198.317 86.568ZM206.903 86.586C206.903 85.794 206.741 85.098 206.417 84.498C206.093 83.898 205.649 83.436 205.085 83.112C204.533 82.788 203.921 82.626 203.249 82.626C202.553 82.626 201.929 82.782 201.377 83.094C200.825 83.406 200.387 83.862 200.063 84.462C199.751 85.05 199.595 85.752 199.595 86.568C199.595 87.372 199.751 88.08 200.063 88.692C200.387 89.292 200.825 89.754 201.377 90.078C201.929 90.39 202.553 90.546 203.249 90.546C203.921 90.546 204.533 90.384 205.085 90.06C205.649 89.736 206.093 89.274 206.417 88.674C206.741 88.074 206.903 87.378 206.903 86.586ZM214.532 90.276L217.844 81.672H219.176L215.234 91.5H213.812L209.87 81.672H211.22L214.532 90.276ZM229.775 86.082C229.775 86.514 229.763 86.844 229.739 87.072H221.585C221.621 87.816 221.801 88.452 222.125 88.98C222.449 89.508 222.875 89.91 223.403 90.186C223.931 90.45 224.507 90.582 225.131 90.582C225.947 90.582 226.631 90.384 227.183 89.988C227.747 89.592 228.119 89.058 228.299 88.386H229.631C229.391 89.346 228.875 90.132 228.083 90.744C227.303 91.344 226.319 91.644 225.131 91.644C224.207 91.644 223.379 91.44 222.647 91.032C221.915 90.612 221.339 90.024 220.919 89.268C220.511 88.5 220.307 87.606 220.307 86.586C220.307 85.566 220.511 84.672 220.919 83.904C221.327 83.136 221.897 82.548 222.629 82.14C223.361 81.732 224.195 81.528 225.131 81.528C226.067 81.528 226.883 81.732 227.579 82.14C228.287 82.548 228.827 83.1 229.199 83.796C229.583 84.48 229.775 85.242 229.775 86.082ZM228.497 86.046C228.509 85.314 228.359 84.69 228.047 84.174C227.747 83.658 227.333 83.268 226.805 83.004C226.277 82.74 225.701 82.608 225.077 82.608C224.141 82.608 223.343 82.908 222.683 83.508C222.023 84.108 221.657 84.954 221.585 86.046H228.497ZM244.31 88.512H238.586L237.488 91.5H236.156L240.746 79.08H242.168L246.74 91.5H245.408L244.31 88.512ZM243.932 87.468L241.448 80.664L238.964 87.468H243.932ZM253.37 81.492C254.546 81.492 255.506 81.858 256.25 82.59C256.994 83.31 257.366 84.36 257.366 85.74V91.5H256.124V85.884C256.124 84.816 255.854 84 255.314 83.436C254.786 82.872 254.06 82.59 253.136 82.59C252.188 82.59 251.432 82.89 250.868 83.49C250.304 84.09 250.022 84.972 250.022 86.136V91.5H248.762V81.672H250.022V83.346C250.334 82.746 250.784 82.29 251.372 81.978C251.96 81.654 252.626 81.492 253.37 81.492ZM268.253 81.672L262.421 96.126H261.107L263.015 91.446L258.983 81.672H260.369L263.717 90.06L266.957 81.672H268.253ZM370.105 78.756C370.873 78.756 371.551 78.906 372.139 79.206C372.739 79.506 373.201 79.938 373.525 80.502C373.861 81.054 374.029 81.696 374.029 82.428C374.029 83.724 373.627 84.678 372.823 85.29C372.031 85.89 370.945 86.19 369.565 86.19L369.511 88.17H368.431L368.359 85.29H368.827C370.063 85.29 371.035 85.098 371.743 84.714C372.463 84.318 372.823 83.556 372.823 82.428C372.823 81.636 372.571 81.006 372.067 80.538C371.575 80.07 370.921 79.836 370.105 79.836C369.289 79.836 368.641 80.058 368.161 80.502C367.681 80.946 367.441 81.552 367.441 82.32H366.235C366.235 81.6 366.397 80.976 366.721 80.448C367.057 79.908 367.513 79.494 368.089 79.206C368.677 78.906 369.349 78.756 370.105 78.756ZM368.971 91.59C368.707 91.59 368.485 91.5 368.305 91.32C368.137 91.14 368.053 90.918 368.053 90.654C368.053 90.39 368.137 90.174 368.305 90.006C368.485 89.826 368.707 89.736 368.971 89.736C369.223 89.736 369.433 89.826 369.601 90.006C369.781 90.174 369.871 90.39 369.871 90.654C369.871 90.918 369.781 91.14 369.601 91.32C369.433 91.5 369.223 91.59 368.971 91.59Z" fill="#0B2041"/>
<path d="M284.063 93.714L282.155 91.428C281.627 91.56 281.087 91.626 280.535 91.626C279.359 91.626 278.279 91.35 277.295 90.798C276.311 90.246 275.531 89.484 274.955 88.512C274.379 87.528 274.091 86.418 274.091 85.182C274.091 83.958 274.379 82.86 274.955 81.888C275.531 80.904 276.311 80.136 277.295 79.584C278.279 79.032 279.359 78.756 280.535 78.756C281.723 78.756 282.803 79.032 283.775 79.584C284.759 80.136 285.533 80.904 286.097 81.888C286.673 82.86 286.961 83.958 286.961 85.182C286.961 86.298 286.721 87.318 286.241 88.242C285.773 89.154 285.131 89.898 284.315 90.474L287.195 93.714H284.063ZM276.683 85.182C276.683 86.022 276.845 86.76 277.169 87.396C277.493 88.032 277.943 88.524 278.519 88.872C279.107 89.208 279.779 89.376 280.535 89.376C281.291 89.376 281.957 89.208 282.533 88.872C283.109 88.524 283.559 88.032 283.883 87.396C284.207 86.76 284.369 86.022 284.369 85.182C284.369 84.342 284.207 83.61 283.883 82.986C283.559 82.35 283.109 81.864 282.533 81.528C281.957 81.192 281.291 81.024 280.535 81.024C279.779 81.024 279.107 81.192 278.519 81.528C277.943 81.864 277.493 82.35 277.169 82.986C276.845 83.61 276.683 84.342 276.683 85.182ZM298.285 81.528V91.5H295.747V90.24C295.423 90.672 294.997 91.014 294.469 91.266C293.953 91.506 293.389 91.626 292.777 91.626C291.997 91.626 291.307 91.464 290.707 91.14C290.107 90.804 289.633 90.318 289.285 89.682C288.949 89.034 288.781 88.266 288.781 87.378V81.528H291.301V87.018C291.301 87.81 291.499 88.422 291.895 88.854C292.291 89.274 292.831 89.484 293.515 89.484C294.211 89.484 294.757 89.274 295.153 88.854C295.549 88.422 295.747 87.81 295.747 87.018V81.528H298.285ZM310.041 86.298C310.041 86.658 310.017 86.982 309.969 87.27H302.679C302.739 87.99 302.991 88.554 303.435 88.962C303.879 89.37 304.425 89.574 305.073 89.574C306.009 89.574 306.675 89.172 307.071 88.368H309.789C309.501 89.328 308.949 90.12 308.133 90.744C307.317 91.356 306.315 91.662 305.127 91.662C304.167 91.662 303.303 91.452 302.535 91.032C301.779 90.6 301.185 89.994 300.753 89.214C300.333 88.434 300.123 87.534 300.123 86.514C300.123 85.482 300.333 84.576 300.753 83.796C301.173 83.016 301.761 82.416 302.517 81.996C303.273 81.576 304.143 81.366 305.127 81.366C306.075 81.366 306.921 81.57 307.665 81.978C308.421 82.386 309.003 82.968 309.411 83.724C309.831 84.468 310.041 85.326 310.041 86.298ZM307.431 85.578C307.419 84.93 307.185 84.414 306.729 84.03C306.273 83.634 305.715 83.436 305.055 83.436C304.431 83.436 303.903 83.628 303.471 84.012C303.051 84.384 302.793 84.906 302.697 85.578H307.431ZM315.697 91.662C314.881 91.662 314.149 91.518 313.501 91.23C312.853 90.93 312.337 90.528 311.953 90.024C311.581 89.52 311.377 88.962 311.341 88.35H313.879C313.927 88.734 314.113 89.052 314.437 89.304C314.773 89.556 315.187 89.682 315.679 89.682C316.159 89.682 316.531 89.586 316.795 89.394C317.071 89.202 317.209 88.956 317.209 88.656C317.209 88.332 317.041 88.092 316.705 87.936C316.381 87.768 315.859 87.588 315.139 87.396C314.395 87.216 313.783 87.03 313.303 86.838C312.835 86.646 312.427 86.352 312.079 85.956C311.743 85.56 311.575 85.026 311.575 84.354C311.575 83.802 311.731 83.298 312.043 82.842C312.367 82.386 312.823 82.026 313.411 81.762C314.011 81.498 314.713 81.366 315.517 81.366C316.705 81.366 317.653 81.666 318.361 82.266C319.069 82.854 319.459 83.652 319.531 84.66H317.119C317.083 84.264 316.915 83.952 316.615 83.724C316.327 83.484 315.937 83.364 315.445 83.364C314.989 83.364 314.635 83.448 314.383 83.616C314.143 83.784 314.023 84.018 314.023 84.318C314.023 84.654 314.191 84.912 314.527 85.092C314.863 85.26 315.385 85.434 316.093 85.614C316.813 85.794 317.407 85.98 317.875 86.172C318.343 86.364 318.745 86.664 319.081 87.072C319.429 87.468 319.609 87.996 319.621 88.656C319.621 89.232 319.459 89.748 319.135 90.204C318.823 90.66 318.367 91.02 317.767 91.284C317.179 91.536 316.489 91.662 315.697 91.662ZM324.623 83.598V88.422C324.623 88.758 324.701 89.004 324.857 89.16C325.025 89.304 325.301 89.376 325.685 89.376H326.855V91.5H325.271C323.147 91.5 322.085 90.468 322.085 88.404V83.598H320.897V81.528H322.085V79.062H324.623V81.528H326.855V83.598H324.623ZM329.946 80.34C329.502 80.34 329.13 80.202 328.83 79.926C328.542 79.638 328.398 79.284 328.398 78.864C328.398 78.444 328.542 78.096 328.83 77.82C329.13 77.532 329.502 77.388 329.946 77.388C330.39 77.388 330.756 77.532 331.044 77.82C331.344 78.096 331.494 78.444 331.494 78.864C331.494 79.284 331.344 79.638 331.044 79.926C330.756 80.202 330.39 80.34 329.946 80.34ZM331.188 81.528V91.5H328.668V81.528H331.188ZM338.106 91.662C337.146 91.662 336.282 91.452 335.514 91.032C334.746 90.6 334.14 89.994 333.696 89.214C333.264 88.434 333.048 87.534 333.048 86.514C333.048 85.494 333.27 84.594 333.714 83.814C334.17 83.034 334.788 82.434 335.568 82.014C336.348 81.582 337.218 81.366 338.178 81.366C339.138 81.366 340.008 81.582 340.788 82.014C341.568 82.434 342.18 83.034 342.624 83.814C343.08 84.594 343.308 85.494 343.308 86.514C343.308 87.534 343.074 88.434 342.606 89.214C342.15 89.994 341.526 90.6 340.734 91.032C339.954 91.452 339.078 91.662 338.106 91.662ZM338.106 89.466C338.562 89.466 338.988 89.358 339.384 89.142C339.792 88.914 340.116 88.578 340.356 88.134C340.596 87.69 340.716 87.15 340.716 86.514C340.716 85.566 340.464 84.84 339.96 84.336C339.468 83.82 338.862 83.562 338.142 83.562C337.422 83.562 336.816 83.82 336.324 84.336C335.844 84.84 335.604 85.566 335.604 86.514C335.604 87.462 335.838 88.194 336.306 88.71C336.786 89.214 337.386 89.466 338.106 89.466ZM350.682 81.384C351.87 81.384 352.83 81.762 353.562 82.518C354.294 83.262 354.66 84.306 354.66 85.65V91.5H352.14V85.992C352.14 85.2 351.942 84.594 351.546 84.174C351.15 83.742 350.61 83.526 349.926 83.526C349.23 83.526 348.678 83.742 348.27 84.174C347.874 84.594 347.676 85.2 347.676 85.992V91.5H345.156V81.528H347.676V82.77C348.012 82.338 348.438 82.002 348.954 81.762C349.482 81.51 350.058 81.384 350.682 81.384ZM360.872 91.662C360.056 91.662 359.324 91.518 358.676 91.23C358.028 90.93 357.512 90.528 357.128 90.024C356.756 89.52 356.552 88.962 356.516 88.35H359.054C359.102 88.734 359.288 89.052 359.612 89.304C359.948 89.556 360.362 89.682 360.854 89.682C361.334 89.682 361.706 89.586 361.97 89.394C362.246 89.202 362.384 88.956 362.384 88.656C362.384 88.332 362.216 88.092 361.88 87.936C361.556 87.768 361.034 87.588 360.314 87.396C359.57 87.216 358.958 87.03 358.478 86.838C358.01 86.646 357.602 86.352 357.254 85.956C356.918 85.56 356.75 85.026 356.75 84.354C356.75 83.802 356.906 83.298 357.218 82.842C357.542 82.386 357.998 82.026 358.586 81.762C359.186 81.498 359.888 81.366 360.692 81.366C361.88 81.366 362.828 81.666 363.536 82.266C364.244 82.854 364.634 83.652 364.706 84.66H362.294C362.258 84.264 362.09 83.952 361.79 83.724C361.502 83.484 361.112 83.364 360.62 83.364C360.164 83.364 359.81 83.448 359.558 83.616C359.318 83.784 359.198 84.018 359.198 84.318C359.198 84.654 359.366 84.912 359.702 85.092C360.038 85.26 360.56 85.434 361.268 85.614C361.988 85.794 362.582 85.98 363.05 86.172C363.518 86.364 363.92 86.664 364.256 87.072C364.604 87.468 364.784 87.996 364.796 88.656C364.796 89.232 364.634 89.748 364.31 90.204C363.998 90.66 363.542 91.02 362.942 91.284C362.354 91.536 361.664 91.662 360.872 91.662Z" fill="url(#paint5_linear_48_1749)"/>
</g>
<g filter="url(#filter2_d_48_1749)">
<path d="M84 262C84 250.954 92.9543 242 104 242H254V289C254 300.046 245.046 309 234 309H104C92.9543 309 84 300.046 84 289V262Z" fill="white" shape-rendering="crispEdges"/>
<path d="M116.962 261C119.674 261 121.852 261.756 123.496 263.267C125.165 264.753 126 266.808 126 269.433C126 272.032 125.178 274.021 123.535 275.401C121.892 276.753 119.714 277.429 117.001 277.429L116.844 280.492H112.032L111.836 273.73H113.597C115.866 273.73 117.614 273.425 118.84 272.815C120.066 272.205 120.679 271.091 120.679 269.473C120.679 268.306 120.34 267.378 119.661 266.689C119.009 265.999 118.109 265.654 116.962 265.654C115.762 265.654 114.823 265.986 114.144 266.649C113.492 267.312 113.166 268.227 113.166 269.394H108.001C107.975 267.776 108.314 266.331 109.019 265.058C109.723 263.785 110.753 262.79 112.11 262.074C113.492 261.358 115.11 261 116.962 261ZM114.418 290C113.427 290 112.605 289.695 111.953 289.085C111.327 288.449 111.014 287.666 111.014 286.738C111.014 285.81 111.327 285.041 111.953 284.431C112.605 283.794 113.427 283.476 114.418 283.476C115.383 283.476 116.179 283.794 116.805 284.431C117.431 285.041 117.744 285.81 117.744 286.738C117.744 287.666 117.431 288.449 116.805 289.085C116.179 289.695 115.383 290 114.418 290Z" fill="url(#paint6_linear_48_1749)"/>
<rect x="138" y="271.5" width="93" height="8" fill="#F5F5F5"/>
</g>
<g filter="url(#filter3_d_48_1749)">
<path d="M227 378H632C643.046 378 652 386.954 652 398V450C652 461.046 643.046 470 632 470H247C235.954 470 227 461.046 227 450V378Z" fill="white" shape-rendering="crispEdges"/>
<rect x="251" y="408" width="32" height="32" rx="16" fill="url(#paint7_linear_48_1749)"/>
<path d="M272.517 417.718L268.269 425.908V430.282H265.749V425.908L261.483 417.718H264.327L267.027 423.46L269.709 417.718H272.517Z" fill="white"/>
<path d="M311.704 404.418L308.14 417H306.736L303.568 406.272L300.328 417L298.96 417.018L295.468 404.418H296.818L299.698 415.452L302.92 404.418H304.324L307.456 415.452L310.354 404.418H311.704ZM322.523 411.582C322.523 412.014 322.511 412.344 322.487 412.572H314.333C314.369 413.316 314.549 413.952 314.873 414.48C315.197 415.008 315.623 415.41 316.151 415.686C316.679 415.95 317.255 416.082 317.879 416.082C318.695 416.082 319.379 415.884 319.931 415.488C320.495 415.092 320.867 414.558 321.047 413.886H322.379C322.139 414.846 321.623 415.632 320.831 416.244C320.051 416.844 319.067 417.144 317.879 417.144C316.955 417.144 316.127 416.94 315.395 416.532C314.663 416.112 314.087 415.524 313.667 414.768C313.259 414 313.055 413.106 313.055 412.086C313.055 411.066 313.259 410.172 313.667 409.404C314.075 408.636 314.645 408.048 315.377 407.64C316.109 407.232 316.943 407.028 317.879 407.028C318.815 407.028 319.631 407.232 320.327 407.64C321.035 408.048 321.575 408.6 321.947 409.296C322.331 409.98 322.523 410.742 322.523 411.582ZM321.245 411.546C321.257 410.814 321.107 410.19 320.795 409.674C320.495 409.158 320.081 408.768 319.553 408.504C319.025 408.24 318.449 408.108 317.825 408.108C316.889 408.108 316.091 408.408 315.431 409.008C314.771 409.608 314.405 410.454 314.333 411.546H321.245ZM339.11 404.418V417H337.85V411.114H331.028V417H329.768V404.418H331.028V410.07H337.85V404.418H339.11ZM341.409 412.068C341.409 411.06 341.607 410.178 342.003 409.422C342.411 408.654 342.969 408.066 343.677 407.658C344.397 407.238 345.207 407.028 346.107 407.028C347.043 407.028 347.847 407.244 348.519 407.676C349.203 408.108 349.695 408.66 349.995 409.332V407.172H351.255V417H349.995V414.822C349.683 415.494 349.185 416.052 348.501 416.496C347.829 416.928 347.025 417.144 346.089 417.144C345.201 417.144 344.397 416.934 343.677 416.514C342.969 416.094 342.411 415.5 342.003 414.732C341.607 413.964 341.409 413.076 341.409 412.068ZM349.995 412.086C349.995 411.294 349.833 410.598 349.509 409.998C349.185 409.398 348.741 408.936 348.177 408.612C347.625 408.288 347.013 408.126 346.341 408.126C345.645 408.126 345.021 408.282 344.469 408.594C343.917 408.906 343.479 409.362 343.155 409.962C342.843 410.55 342.687 411.252 342.687 412.068C342.687 412.872 342.843 413.58 343.155 414.192C343.479 414.792 343.917 415.254 344.469 415.578C345.021 415.89 345.645 416.046 346.341 416.046C347.013 416.046 347.625 415.884 348.177 415.56C348.741 415.236 349.185 414.774 349.509 414.174C349.833 413.574 349.995 412.878 349.995 412.086ZM357.623 415.776L360.935 407.172H362.267L358.325 417H356.903L352.961 407.172H354.311L357.623 415.776ZM372.867 411.582C372.867 412.014 372.855 412.344 372.831 412.572H364.677C364.713 413.316 364.893 413.952 365.217 414.48C365.541 415.008 365.967 415.41 366.495 415.686C367.023 415.95 367.599 416.082 368.223 416.082C369.039 416.082 369.723 415.884 370.275 415.488C370.839 415.092 371.211 414.558 371.391 413.886H372.723C372.483 414.846 371.967 415.632 371.175 416.244C370.395 416.844 369.411 417.144 368.223 417.144C367.299 417.144 366.471 416.94 365.739 416.532C365.007 416.112 364.431 415.524 364.011 414.768C363.603 414 363.399 413.106 363.399 412.086C363.399 411.066 363.603 410.172 364.011 409.404C364.419 408.636 364.989 408.048 365.721 407.64C366.453 407.232 367.287 407.028 368.223 407.028C369.159 407.028 369.975 407.232 370.671 407.64C371.379 408.048 371.919 408.6 372.291 409.296C372.675 409.98 372.867 410.742 372.867 411.582ZM371.589 411.546C371.601 410.814 371.451 410.19 371.139 409.674C370.839 409.158 370.425 408.768 369.897 408.504C369.369 408.24 368.793 408.108 368.169 408.108C367.233 408.108 366.435 408.408 365.775 409.008C365.115 409.608 364.749 410.454 364.677 411.546H371.589ZM480.344 417.126C479.516 417.126 478.784 416.982 478.148 416.694C477.524 416.406 477.032 416.004 476.672 415.488C476.312 414.972 476.12 414.396 476.096 413.76H477.428C477.488 414.372 477.758 414.912 478.238 415.38C478.718 415.836 479.42 416.064 480.344 416.064C481.196 416.064 481.868 415.848 482.36 415.416C482.864 414.972 483.116 414.414 483.116 413.742C483.116 413.202 482.978 412.77 482.702 412.446C482.426 412.11 482.084 411.864 481.676 411.708C481.268 411.54 480.704 411.36 479.984 411.168C479.144 410.94 478.478 410.718 477.986 410.502C477.494 410.286 477.074 409.95 476.726 409.494C476.378 409.038 476.204 408.42 476.204 407.64C476.204 406.992 476.372 406.416 476.708 405.912C477.044 405.396 477.518 404.994 478.13 404.706C478.742 404.418 479.444 404.274 480.236 404.274C481.4 404.274 482.336 404.562 483.044 405.138C483.764 405.702 484.178 406.434 484.286 407.334H482.918C482.834 406.818 482.552 406.362 482.072 405.966C481.592 405.558 480.944 405.354 480.128 405.354C479.372 405.354 478.742 405.558 478.238 405.966C477.734 406.362 477.482 406.908 477.482 407.604C477.482 408.132 477.62 408.558 477.896 408.882C478.172 409.206 478.514 409.452 478.922 409.62C479.342 409.788 479.906 409.968 480.614 410.16C481.43 410.388 482.09 410.616 482.594 410.844C483.098 411.06 483.524 411.396 483.872 411.852C484.22 412.308 484.394 412.92 484.394 413.688C484.394 414.276 484.238 414.834 483.926 415.362C483.614 415.89 483.152 416.316 482.54 416.64C481.928 416.964 481.196 417.126 480.344 417.126ZM491.131 417.144C490.207 417.144 489.373 416.94 488.629 416.532C487.897 416.112 487.315 415.524 486.883 414.768C486.463 414 486.253 413.106 486.253 412.086C486.253 411.066 486.469 410.178 486.901 409.422C487.333 408.654 487.921 408.066 488.665 407.658C489.409 407.238 490.243 407.028 491.167 407.028C492.091 407.028 492.925 407.238 493.669 407.658C494.425 408.066 495.013 408.654 495.433 409.422C495.865 410.178 496.081 411.066 496.081 412.086C496.081 413.094 495.865 413.982 495.433 414.75C495.001 415.518 494.407 416.112 493.651 416.532C492.895 416.94 492.055 417.144 491.131 417.144ZM491.131 416.046C491.779 416.046 492.379 415.902 492.931 415.614C493.483 415.314 493.927 414.87 494.263 414.282C494.611 413.682 494.785 412.95 494.785 412.086C494.785 411.222 494.617 410.496 494.281 409.908C493.945 409.308 493.501 408.864 492.949 408.576C492.397 408.276 491.797 408.126 491.149 408.126C490.501 408.126 489.901 408.276 489.349 408.576C488.797 408.864 488.353 409.308 488.017 409.908C487.693 410.496 487.531 411.222 487.531 412.086C487.531 412.95 487.693 413.682 488.017 414.282C488.353 414.87 488.791 415.314 489.331 415.614C489.883 415.902 490.483 416.046 491.131 416.046ZM510.078 406.992C511.23 406.992 512.166 407.358 512.886 408.09C513.618 408.81 513.984 409.86 513.984 411.24V417H512.742V411.384C512.742 410.316 512.484 409.5 511.968 408.936C511.452 408.372 510.75 408.09 509.862 408.09C508.938 408.09 508.2 408.396 507.648 409.008C507.096 409.62 506.82 410.508 506.82 411.672V417H505.578V411.384C505.578 410.316 505.32 409.5 504.804 408.936C504.288 408.372 503.58 408.09 502.68 408.09C501.756 408.09 501.018 408.396 500.466 409.008C499.914 409.62 499.638 410.508 499.638 411.672V417H498.378V407.172H499.638V408.864C499.95 408.252 500.394 407.79 500.97 407.478C501.546 407.154 502.188 406.992 502.896 406.992C503.748 406.992 504.492 407.196 505.128 407.604C505.776 408.012 506.244 408.612 506.532 409.404C506.796 408.624 507.246 408.03 507.882 407.622C508.53 407.202 509.262 406.992 510.078 406.992ZM525.674 411.582C525.674 412.014 525.662 412.344 525.638 412.572H517.484C517.52 413.316 517.7 413.952 518.024 414.48C518.348 415.008 518.774 415.41 519.302 415.686C519.83 415.95 520.406 416.082 521.03 416.082C521.846 416.082 522.53 415.884 523.082 415.488C523.646 415.092 524.018 414.558 524.198 413.886H525.53C525.29 414.846 524.774 415.632 523.982 416.244C523.202 416.844 522.218 417.144 521.03 417.144C520.106 417.144 519.278 416.94 518.546 416.532C517.814 416.112 517.238 415.524 516.818 414.768C516.41 414 516.206 413.106 516.206 412.086C516.206 411.066 516.41 410.172 516.818 409.404C517.226 408.636 517.796 408.048 518.528 407.64C519.26 407.232 520.094 407.028 521.03 407.028C521.966 407.028 522.782 407.232 523.478 407.64C524.186 408.048 524.726 408.6 525.098 409.296C525.482 409.98 525.674 410.742 525.674 411.582ZM524.396 411.546C524.408 410.814 524.258 410.19 523.946 409.674C523.646 409.158 523.232 408.768 522.704 408.504C522.176 408.24 521.6 408.108 520.976 408.108C520.04 408.108 519.242 408.408 518.582 409.008C517.922 409.608 517.556 410.454 517.484 411.546H524.396ZM538.571 417.126C537.407 417.126 536.351 416.856 535.403 416.316C534.455 415.764 533.705 415.002 533.153 414.03C532.613 413.046 532.343 411.936 532.343 410.7C532.343 409.464 532.613 408.36 533.153 407.388C533.705 406.404 534.455 405.642 535.403 405.102C536.351 404.55 537.407 404.274 538.571 404.274C539.747 404.274 540.809 404.55 541.757 405.102C542.705 405.642 543.449 406.404 543.989 407.388C544.529 408.36 544.799 409.464 544.799 410.7C544.799 411.936 544.529 413.046 543.989 414.03C543.449 415.002 542.705 415.764 541.757 416.316C540.809 416.856 539.747 417.126 538.571 417.126ZM538.571 416.028C539.507 416.028 540.347 415.812 541.091 415.38C541.835 414.948 542.423 414.33 542.855 413.526C543.287 412.71 543.503 411.768 543.503 410.7C543.503 409.632 543.287 408.696 542.855 407.892C542.423 407.088 541.835 406.47 541.091 406.038C540.347 405.606 539.507 405.39 538.571 405.39C537.635 405.39 536.795 405.606 536.051 406.038C535.307 406.47 534.719 407.088 534.287 407.892C533.855 408.696 533.639 409.632 533.639 410.7C533.639 411.768 533.855 412.71 534.287 413.526C534.719 414.33 535.307 414.948 536.051 415.38C536.795 415.812 537.635 416.028 538.571 416.028ZM550.974 408.234H548.688V417H547.428V408.234H546.06V407.172H547.428V406.488C547.428 405.42 547.698 404.634 548.238 404.13C548.79 403.626 549.678 403.374 550.902 403.374V404.454C550.086 404.454 549.51 404.61 549.174 404.922C548.85 405.234 548.688 405.756 548.688 406.488V407.172H550.974V408.234ZM566.213 404.418L562.181 412.104V417H560.921V412.104L556.853 404.418H558.275L561.551 410.952L564.809 404.418H566.213ZM572.359 417.144C571.435 417.144 570.601 416.94 569.857 416.532C569.125 416.112 568.543 415.524 568.111 414.768C567.691 414 567.481 413.106 567.481 412.086C567.481 411.066 567.697 410.178 568.129 409.422C568.561 408.654 569.149 408.066 569.893 407.658C570.637 407.238 571.471 407.028 572.395 407.028C573.319 407.028 574.153 407.238 574.897 407.658C575.653 408.066 576.241 408.654 576.661 409.422C577.093 410.178 577.309 411.066 577.309 412.086C577.309 413.094 577.093 413.982 576.661 414.75C576.229 415.518 575.635 416.112 574.879 416.532C574.123 416.94 573.283 417.144 572.359 417.144ZM572.359 416.046C573.007 416.046 573.607 415.902 574.159 415.614C574.711 415.314 575.155 414.87 575.491 414.282C575.839 413.682 576.013 412.95 576.013 412.086C576.013 411.222 575.845 410.496 575.509 409.908C575.173 409.308 574.729 408.864 574.177 408.576C573.625 408.276 573.025 408.126 572.377 408.126C571.729 408.126 571.129 408.276 570.577 408.576C570.025 408.864 569.581 409.308 569.245 409.908C568.921 410.496 568.759 411.222 568.759 412.086C568.759 412.95 568.921 413.682 569.245 414.282C569.581 414.87 570.019 415.314 570.559 415.614C571.111 415.902 571.711 416.046 572.359 416.046ZM588.12 407.172V417H586.86V415.272C586.572 415.884 586.128 416.352 585.528 416.676C584.928 417 584.256 417.162 583.512 417.162C582.336 417.162 581.376 416.802 580.632 416.082C579.888 415.35 579.516 414.294 579.516 412.914V407.172H580.758V412.77C580.758 413.838 581.022 414.654 581.55 415.218C582.09 415.782 582.822 416.064 583.746 416.064C584.694 416.064 585.45 415.764 586.014 415.164C586.578 414.564 586.86 413.682 586.86 412.518V407.172H588.12ZM592.257 408.918C592.533 408.306 592.953 407.832 593.517 407.496C594.093 407.16 594.795 406.992 595.623 406.992V408.306H595.281C594.369 408.306 593.637 408.552 593.085 409.044C592.533 409.536 592.257 410.358 592.257 411.51V417H590.997V407.172H592.257V408.918ZM306.826 446.466L304.018 443.856C303.406 444.036 302.764 444.126 302.092 444.126C300.928 444.126 299.872 443.856 298.924 443.316C297.976 442.764 297.226 442.002 296.674 441.03C296.134 440.046 295.864 438.936 295.864 437.7C295.864 436.464 296.134 435.36 296.674 434.388C297.226 433.404 297.976 432.642 298.924 432.102C299.872 431.55 300.928 431.274 302.092 431.274C303.268 431.274 304.33 431.55 305.278 432.102C306.226 432.642 306.97 433.404 307.51 434.388C308.05 435.36 308.32 436.464 308.32 437.7C308.32 438.972 308.038 440.106 307.474 441.102C306.91 442.086 306.136 442.842 305.152 443.37L308.518 446.466H306.826ZM297.16 437.7C297.16 438.768 297.376 439.71 297.808 440.526C298.24 441.33 298.828 441.948 299.572 442.38C300.316 442.812 301.156 443.028 302.092 443.028C303.028 443.028 303.868 442.812 304.612 442.38C305.356 441.948 305.944 441.33 306.376 440.526C306.808 439.71 307.024 438.768 307.024 437.7C307.024 436.632 306.808 435.696 306.376 434.892C305.944 434.088 305.356 433.47 304.612 433.038C303.868 432.606 303.028 432.39 302.092 432.39C301.156 432.39 300.316 432.606 299.572 433.038C298.828 433.47 298.24 434.088 297.808 434.892C297.376 435.696 297.16 436.632 297.16 437.7ZM319.157 434.172V444H317.897V442.272C317.609 442.884 317.165 443.352 316.565 443.676C315.965 444 315.293 444.162 314.549 444.162C313.373 444.162 312.413 443.802 311.669 443.082C310.925 442.35 310.553 441.294 310.553 439.914V434.172H311.795V439.77C311.795 440.838 312.059 441.654 312.587 442.218C313.127 442.782 313.859 443.064 314.783 443.064C315.731 443.064 316.487 442.764 317.051 442.164C317.615 441.564 317.897 440.682 317.897 439.518V434.172H319.157ZM330.926 438.582C330.926 439.014 330.914 439.344 330.89 439.572H322.736C322.772 440.316 322.952 440.952 323.276 441.48C323.6 442.008 324.026 442.41 324.554 442.686C325.082 442.95 325.658 443.082 326.282 443.082C327.098 443.082 327.782 442.884 328.334 442.488C328.898 442.092 329.27 441.558 329.45 440.886H330.782C330.542 441.846 330.026 442.632 329.234 443.244C328.454 443.844 327.47 444.144 326.282 444.144C325.358 444.144 324.53 443.94 323.798 443.532C323.066 443.112 322.49 442.524 322.07 441.768C321.662 441 321.458 440.106 321.458 439.086C321.458 438.066 321.662 437.172 322.07 436.404C322.478 435.636 323.048 435.048 323.78 434.64C324.512 434.232 325.346 434.028 326.282 434.028C327.218 434.028 328.034 434.232 328.73 434.64C329.438 435.048 329.978 435.6 330.35 436.296C330.734 436.98 330.926 437.742 330.926 438.582ZM329.648 438.546C329.66 437.814 329.51 437.19 329.198 436.674C328.898 436.158 328.484 435.768 327.956 435.504C327.428 435.24 326.852 435.108 326.228 435.108C325.292 435.108 324.494 435.408 323.834 436.008C323.174 436.608 322.808 437.454 322.736 438.546H329.648ZM336.615 444.144C335.487 444.144 334.563 443.886 333.843 443.37C333.135 442.842 332.739 442.128 332.655 441.228H333.951C334.011 441.78 334.269 442.23 334.725 442.578C335.193 442.914 335.817 443.082 336.597 443.082C337.281 443.082 337.815 442.92 338.199 442.596C338.595 442.272 338.793 441.87 338.793 441.39C338.793 441.054 338.685 440.778 338.469 440.562C338.253 440.346 337.977 440.178 337.641 440.058C337.317 439.926 336.873 439.788 336.309 439.644C335.577 439.452 334.983 439.26 334.527 439.068C334.071 438.876 333.681 438.594 333.357 438.222C333.045 437.838 332.889 437.328 332.889 436.692C332.889 436.212 333.033 435.768 333.321 435.36C333.609 434.952 334.017 434.628 334.545 434.388C335.073 434.148 335.673 434.028 336.345 434.028C337.401 434.028 338.253 434.298 338.901 434.838C339.549 435.366 339.897 436.098 339.945 437.034H338.685C338.649 436.458 338.421 435.996 338.001 435.648C337.593 435.288 337.029 435.108 336.309 435.108C335.673 435.108 335.157 435.258 334.761 435.558C334.365 435.858 334.167 436.23 334.167 436.674C334.167 437.058 334.281 437.376 334.509 437.628C334.749 437.868 335.043 438.06 335.391 438.204C335.739 438.336 336.207 438.486 336.795 438.654C337.503 438.846 338.067 439.032 338.487 439.212C338.907 439.392 339.267 439.656 339.567 440.004C339.867 440.352 340.023 440.814 340.035 441.39C340.035 441.918 339.891 442.392 339.603 442.812C339.315 443.22 338.913 443.544 338.397 443.784C337.881 444.024 337.287 444.144 336.615 444.144ZM344.045 435.234V441.336C344.045 441.936 344.159 442.35 344.387 442.578C344.615 442.806 345.017 442.92 345.593 442.92H346.745V444H345.395C344.507 444 343.847 443.796 343.415 443.388C342.983 442.968 342.767 442.284 342.767 441.336V435.234H341.399V434.172H342.767V431.706H344.045V434.172H346.745V435.234H344.045ZM349.453 432.318C349.201 432.318 348.985 432.228 348.805 432.048C348.625 431.868 348.535 431.646 348.535 431.382C348.535 431.118 348.625 430.902 348.805 430.734C348.985 430.554 349.201 430.464 349.453 430.464C349.705 430.464 349.921 430.554 350.101 430.734C350.281 430.902 350.371 431.118 350.371 431.382C350.371 431.646 350.281 431.868 350.101 432.048C349.921 432.228 349.705 432.318 349.453 432.318ZM350.083 434.172V444H348.823V434.172H350.083ZM357.238 444.144C356.314 444.144 355.48 443.94 354.736 443.532C354.004 443.112 353.422 442.524 352.99 441.768C352.57 441 352.36 440.106 352.36 439.086C352.36 438.066 352.576 437.178 353.008 436.422C353.44 435.654 354.028 435.066 354.772 434.658C355.516 434.238 356.35 434.028 357.274 434.028C358.198 434.028 359.032 434.238 359.776 434.658C360.532 435.066 361.12 435.654 361.54 436.422C361.972 437.178 362.188 438.066 362.188 439.086C362.188 440.094 361.972 440.982 361.54 441.75C361.108 442.518 360.514 443.112 359.758 443.532C359.002 443.94 358.162 444.144 357.238 444.144ZM357.238 443.046C357.886 443.046 358.486 442.902 359.038 442.614C359.59 442.314 360.034 441.87 360.37 441.282C360.718 440.682 360.892 439.95 360.892 439.086C360.892 438.222 360.724 437.496 360.388 436.908C360.052 436.308 359.608 435.864 359.056 435.576C358.504 435.276 357.904 435.126 357.256 435.126C356.608 435.126 356.008 435.276 355.456 435.576C354.904 435.864 354.46 436.308 354.124 436.908C353.8 437.496 353.638 438.222 353.638 439.086C353.638 439.95 353.8 440.682 354.124 441.282C354.46 441.87 354.898 442.314 355.438 442.614C355.99 442.902 356.59 443.046 357.238 443.046ZM369.093 433.992C370.269 433.992 371.229 434.358 371.973 435.09C372.717 435.81 373.089 436.86 373.089 438.24V444H371.847V438.384C371.847 437.316 371.577 436.5 371.037 435.936C370.509 435.372 369.783 435.09 368.859 435.09C367.911 435.09 367.155 435.39 366.591 435.99C366.027 436.59 365.745 437.472 365.745 438.636V444H364.485V434.172H365.745V435.846C366.057 435.246 366.507 434.79 367.095 434.478C367.683 434.154 368.349 433.992 369.093 433.992ZM379.26 444.144C378.132 444.144 377.208 443.886 376.488 443.37C375.78 442.842 375.384 442.128 375.3 441.228H376.596C376.656 441.78 376.914 442.23 377.37 442.578C377.838 442.914 378.462 443.082 379.242 443.082C379.926 443.082 380.46 442.92 380.844 442.596C381.24 442.272 381.438 441.87 381.438 441.39C381.438 441.054 381.33 440.778 381.114 440.562C380.898 440.346 380.622 440.178 380.286 440.058C379.962 439.926 379.518 439.788 378.954 439.644C378.222 439.452 377.628 439.26 377.172 439.068C376.716 438.876 376.326 438.594 376.002 438.222C375.69 437.838 375.534 437.328 375.534 436.692C375.534 436.212 375.678 435.768 375.966 435.36C376.254 434.952 376.662 434.628 377.19 434.388C377.718 434.148 378.318 434.028 378.99 434.028C380.046 434.028 380.898 434.298 381.546 434.838C382.194 435.366 382.542 436.098 382.59 437.034H381.33C381.294 436.458 381.066 435.996 380.646 435.648C380.238 435.288 379.674 435.108 378.954 435.108C378.318 435.108 377.802 435.258 377.406 435.558C377.01 435.858 376.812 436.23 376.812 436.674C376.812 437.058 376.926 437.376 377.154 437.628C377.394 437.868 377.688 438.06 378.036 438.204C378.384 438.336 378.852 438.486 379.44 438.654C380.148 438.846 380.712 439.032 381.132 439.212C381.552 439.392 381.912 439.656 382.212 440.004C382.512 440.352 382.668 440.814 382.68 441.39C382.68 441.918 382.536 442.392 382.248 442.812C381.96 443.22 381.558 443.544 381.042 443.784C380.526 444.024 379.932 444.144 379.26 444.144ZM386.743 431.418L386.581 440.67H385.519L385.375 431.418H386.743ZM386.113 444.09C385.849 444.09 385.627 444 385.447 443.82C385.279 443.64 385.195 443.418 385.195 443.154C385.195 442.89 385.279 442.674 385.447 442.506C385.627 442.326 385.849 442.236 386.113 442.236C386.365 442.236 386.575 442.326 386.743 442.506C386.923 442.674 387.013 442.89 387.013 443.154C387.013 443.418 386.923 443.64 386.743 443.82C386.575 444 386.365 444.09 386.113 444.09Z" fill="#0B2041"/>
<path d="M387.618 414.606H382.614L381.786 417H379.14L383.658 404.418H386.592L391.11 417H388.446L387.618 414.606ZM386.934 412.59L385.116 407.334L383.298 412.59H386.934ZM398.325 406.884C399.513 406.884 400.473 407.262 401.205 408.018C401.937 408.762 402.303 409.806 402.303 411.15V417H399.783V411.492C399.783 410.7 399.585 410.094 399.189 409.674C398.793 409.242 398.253 409.026 397.569 409.026C396.873 409.026 396.321 409.242 395.913 409.674C395.517 410.094 395.319 410.7 395.319 411.492V417H392.799V407.028H395.319V408.27C395.655 407.838 396.081 407.502 396.597 407.262C397.125 407.01 397.701 406.884 398.325 406.884ZM408.515 417.162C407.699 417.162 406.967 417.018 406.319 416.73C405.671 416.43 405.155 416.028 404.771 415.524C404.399 415.02 404.195 414.462 404.159 413.85H406.697C406.745 414.234 406.931 414.552 407.255 414.804C407.591 415.056 408.005 415.182 408.497 415.182C408.977 415.182 409.349 415.086 409.613 414.894C409.889 414.702 410.027 414.456 410.027 414.156C410.027 413.832 409.859 413.592 409.523 413.436C409.199 413.268 408.677 413.088 407.957 412.896C407.213 412.716 406.601 412.53 406.121 412.338C405.653 412.146 405.245 411.852 404.897 411.456C404.561 411.06 404.393 410.526 404.393 409.854C404.393 409.302 404.549 408.798 404.861 408.342C405.185 407.886 405.641 407.526 406.229 407.262C406.829 406.998 407.531 406.866 408.335 406.866C409.523 406.866 410.471 407.166 411.179 407.766C411.887 408.354 412.277 409.152 412.349 410.16H409.937C409.901 409.764 409.733 409.452 409.433 409.224C409.145 408.984 408.755 408.864 408.263 408.864C407.807 408.864 407.453 408.948 407.201 409.116C406.961 409.284 406.841 409.518 406.841 409.818C406.841 410.154 407.009 410.412 407.345 410.592C407.681 410.76 408.203 410.934 408.911 411.114C409.631 411.294 410.225 411.48 410.693 411.672C411.161 411.864 411.563 412.164 411.899 412.572C412.247 412.968 412.427 413.496 412.439 414.156C412.439 414.732 412.277 415.248 411.953 415.704C411.641 416.16 411.185 416.52 410.585 416.784C409.997 417.036 409.307 417.162 408.515 417.162ZM428.332 407.028L425.416 417H422.698L420.88 410.034L419.062 417H416.326L413.392 407.028H415.948L417.712 414.624L419.62 407.028H422.284L424.156 414.606L425.92 407.028H428.332ZM438.965 411.798C438.965 412.158 438.941 412.482 438.893 412.77H431.603C431.663 413.49 431.915 414.054 432.359 414.462C432.803 414.87 433.349 415.074 433.997 415.074C434.933 415.074 435.599 414.672 435.995 413.868H438.713C438.425 414.828 437.873 415.62 437.057 416.244C436.241 416.856 435.239 417.162 434.051 417.162C433.091 417.162 432.227 416.952 431.459 416.532C430.703 416.1 430.109 415.494 429.677 414.714C429.257 413.934 429.047 413.034 429.047 412.014C429.047 410.982 429.257 410.076 429.677 409.296C430.097 408.516 430.685 407.916 431.441 407.496C432.197 407.076 433.067 406.866 434.051 406.866C434.999 406.866 435.845 407.07 436.589 407.478C437.345 407.886 437.927 408.468 438.335 409.224C438.755 409.968 438.965 410.826 438.965 411.798ZM436.355 411.078C436.343 410.43 436.109 409.914 435.653 409.53C435.197 409.134 434.639 408.936 433.979 408.936C433.355 408.936 432.827 409.128 432.395 409.512C431.975 409.884 431.717 410.406 431.621 411.078H436.355ZM443.325 408.576C443.649 408.048 444.069 407.634 444.585 407.334C445.113 407.034 445.713 406.884 446.385 406.884V409.53H445.719C444.927 409.53 444.327 409.716 443.919 410.088C443.523 410.46 443.325 411.108 443.325 412.032V417H440.805V407.028H443.325V408.576ZM457.352 411.798C457.352 412.158 457.328 412.482 457.28 412.77H449.99C450.05 413.49 450.302 414.054 450.746 414.462C451.19 414.87 451.736 415.074 452.384 415.074C453.32 415.074 453.986 414.672 454.382 413.868H457.1C456.812 414.828 456.26 415.62 455.444 416.244C454.628 416.856 453.626 417.162 452.438 417.162C451.478 417.162 450.614 416.952 449.846 416.532C449.09 416.1 448.496 415.494 448.064 414.714C447.644 413.934 447.434 413.034 447.434 412.014C447.434 410.982 447.644 410.076 448.064 409.296C448.484 408.516 449.072 407.916 449.828 407.496C450.584 407.076 451.454 406.866 452.438 406.866C453.386 406.866 454.232 407.07 454.976 407.478C455.732 407.886 456.314 408.468 456.722 409.224C457.142 409.968 457.352 410.826 457.352 411.798ZM454.742 411.078C454.73 410.43 454.496 409.914 454.04 409.53C453.584 409.134 453.026 408.936 452.366 408.936C451.742 408.936 451.214 409.128 450.782 409.512C450.362 409.884 450.104 410.406 450.008 411.078H454.742ZM458.543 411.978C458.543 410.97 458.741 410.076 459.137 409.296C459.545 408.516 460.097 407.916 460.793 407.496C461.489 407.076 462.263 406.866 463.115 406.866C463.763 406.866 464.381 407.01 464.969 407.298C465.557 407.574 466.025 407.946 466.373 408.414V403.68H468.929V417H466.373V415.524C466.061 416.016 465.623 416.412 465.059 416.712C464.495 417.012 463.841 417.162 463.097 417.162C462.257 417.162 461.489 416.946 460.793 416.514C460.097 416.082 459.545 415.476 459.137 414.696C458.741 413.904 458.543 412.998 458.543 411.978ZM466.391 412.014C466.391 411.402 466.271 410.88 466.031 410.448C465.791 410.004 465.467 409.668 465.059 409.44C464.651 409.2 464.213 409.08 463.745 409.08C463.277 409.08 462.845 409.194 462.449 409.422C462.053 409.65 461.729 409.986 461.477 410.43C461.237 410.862 461.117 411.378 461.117 411.978C461.117 412.578 461.237 413.106 461.477 413.562C461.729 414.006 462.053 414.348 462.449 414.588C462.857 414.828 463.289 414.948 463.745 414.948C464.213 414.948 464.651 414.834 465.059 414.606C465.467 414.366 465.791 414.03 466.031 413.598C466.271 413.154 466.391 412.626 466.391 412.014Z" fill="url(#paint8_linear_48_1749)"/>
</g>
<g filter="url(#filter4_d_48_1749)">
<path d="M563 204H716C727.046 204 736 212.954 736 224V251C736 262.046 727.046 271 716 271H583C571.954 271 563 262.046 563 251V204Z" fill="white" shape-rendering="crispEdges"/>
<path d="M595.962 223C598.674 223 600.852 223.756 602.496 225.267C604.165 226.753 605 228.808 605 231.433C605 234.032 604.178 236.021 602.535 237.401C600.892 238.753 598.714 239.429 596.001 239.429L595.844 242.492H591.032L590.836 235.73H592.597C594.866 235.73 596.614 235.425 597.84 234.815C599.066 234.205 599.679 233.091 599.679 231.473C599.679 230.306 599.34 229.378 598.661 228.689C598.009 227.999 597.109 227.654 595.962 227.654C594.762 227.654 593.823 227.986 593.144 228.649C592.492 229.312 592.166 230.227 592.166 231.394H587.001C586.975 229.776 587.314 228.331 588.019 227.058C588.723 225.785 589.753 224.79 591.11 224.074C592.492 223.358 594.11 223 595.962 223ZM593.418 252C592.427 252 591.605 251.695 590.953 251.085C590.327 250.449 590.014 249.666 590.014 248.738C590.014 247.81 590.327 247.041 590.953 246.431C591.605 245.794 592.427 245.476 593.418 245.476C594.383 245.476 595.179 245.794 595.805 246.431C596.431 247.041 596.744 247.81 596.744 248.738C596.744 249.666 596.431 250.449 595.805 251.085C595.179 251.695 594.383 252 593.418 252Z" fill="url(#paint9_linear_48_1749)"/>
<rect x="617" y="233.5" width="95" height="8" fill="#F5F5F5"/>
</g>
<defs>
<filter id="filter0_d_48_1749" x="239" y="99" width="351" height="351" filterUnits="userSpaceOnUse" color-interpolation-filters="sRGB">
<feFlood flood-opacity="0" result="BackgroundImageFix"/>
<feColorMatrix in="SourceAlpha" type="matrix" values="0 0 0 0 0 0 0 0 0 0 0 0 0 0 0 0 0 0 127 0" result="hardAlpha"/>
<feOffset dy="4"/>
<feGaussianBlur stdDeviation="25"/>
<feComposite in2="hardAlpha" operator="out"/>
<feColorMatrix type="matrix" values="0 0 0 0 0.00784314 0 0 0 0 0.305882 0 0 0 0 0.898039 0 0 0 0.15 0"/>
<feBlend mode="normal" in2="BackgroundImageFix" result="effect1_dropShadow_48_1749"/>
<feBlend mode="normal" in="SourceGraphic" in2="effect1_dropShadow_48_1749" result="shape"/>
</filter>
<filter id="filter1_d_48_1749" x="0" y="4" width="527" height="170" filterUnits="userSpaceOnUse" color-interpolation-filters="sRGB">
<feFlood flood-opacity="0" result="BackgroundImageFix"/>
<feColorMatrix in="SourceAlpha" type="matrix" values="0 0 0 0 0 0 0 0 0 0 0 0 0 0 0 0 0 0 127 0" result="hardAlpha"/>
<feOffset dy="4"/>
<feGaussianBlur stdDeviation="25"/>
<feComposite in2="hardAlpha" operator="out"/>
<feColorMatrix type="matrix" values="0 0 0 0 0 0 0 0 0 0 0 0 0 0 0 0 0 0 0.08 0"/>
<feBlend mode="normal" in2="BackgroundImageFix" result="effect1_dropShadow_48_1749"/>
<feBlend mode="normal" in="SourceGraphic" in2="effect1_dropShadow_48_1749" result="shape"/>
</filter>
<filter id="filter2_d_48_1749" x="34" y="196" width="270" height="167" filterUnits="userSpaceOnUse" color-interpolation-filters="sRGB">
<feFlood flood-opacity="0" result="BackgroundImageFix"/>
<feColorMatrix in="SourceAlpha" type="matrix" values="0 0 0 0 0 0 0 0 0 0 0 0 0 0 0 0 0 0 127 0" result="hardAlpha"/>
<feOffset dy="4"/>
<feGaussianBlur stdDeviation="25"/>
<feComposite in2="hardAlpha" operator="out"/>
<feColorMatrix type="matrix" values="0 0 0 0 0 0 0 0 0 0 0 0 0 0 0 0 0 0 0.08 0"/>
<feBlend mode="normal" in2="BackgroundImageFix" result="effect1_dropShadow_48_1749"/>
<feBlend mode="normal" in="SourceGraphic" in2="effect1_dropShadow_48_1749" result="shape"/>
</filter>
<filter id="filter3_d_48_1749" x="177" y="332" width="525" height="192" filterUnits="userSpaceOnUse" color-interpolation-filters="sRGB">
<feFlood flood-opacity="0" result="BackgroundImageFix"/>
<feColorMatrix in="SourceAlpha" type="matrix" values="0 0 0 0 0 0 0 0 0 0 0 0 0 0 0 0 0 0 127 0" result="hardAlpha"/>
<feOffset dy="4"/>
<feGaussianBlur stdDeviation="25"/>
<feComposite in2="hardAlpha" operator="out"/>
<feColorMatrix type="matrix" values="0 0 0 0 0 0 0 0 0 0 0 0 0 0 0 0 0 0 0.08 0"/>
<feBlend mode="normal" in2="BackgroundImageFix" result="effect1_dropShadow_48_1749"/>
<feBlend mode="normal" in="SourceGraphic" in2="effect1_dropShadow_48_1749" result="shape"/>
</filter>
<filter id="filter4_d_48_1749" x="513" y="158" width="273" height="167" filterUnits="userSpaceOnUse" color-interpolation-filters="sRGB">
<feFlood flood-opacity="0" result="BackgroundImageFix"/>
<feColorMatrix in="SourceAlpha" type="matrix" values="0 0 0 0 0 0 0 0 0 0 0 0 0 0 0 0 0 0 127 0" result="hardAlpha"/>
<feOffset dy="4"/>
<feGaussianBlur stdDeviation="25"/>
<feComposite in2="hardAlpha" operator="out"/>
<feColorMatrix type="matrix" values="0 0 0 0 0 0 0 0 0 0 0 0 0 0 0 0 0 0 0.08 0"/>
<feBlend mode="normal" in2="BackgroundImageFix" result="effect1_dropShadow_48_1749"/>
<feBlend mode="normal" in="SourceGraphic" in2="effect1_dropShadow_48_1749" result="shape"/>
</filter>
<linearGradient id="paint0_linear_48_1749" x1="261.83" y1="145" x2="580.516" y2="163.702" gradientUnits="userSpaceOnUse">
<stop stop-color="#246CDA"/>
<stop offset="1" stop-color="#609FFF"/>
</linearGradient>
<linearGradient id="paint1_linear_48_1749" x1="261.83" y1="145" x2="580.516" y2="163.702" gradientUnits="userSpaceOnUse">
<stop stop-color="#246CDA"/>
<stop offset="1" stop-color="#609FFF"/>
</linearGradient>
<linearGradient id="paint2_linear_48_1749" x1="120.446" y1="377.761" x2="527.509" y2="226.678" gradientUnits="userSpaceOnUse">
<stop stop-color="#EEF2F8"/>
<stop offset="1" stop-color="#EEF2F8" stop-opacity="0"/>
</linearGradient>
<linearGradient id="paint3_linear_48_1749" x1="329.5" y1="306" x2="487.5" y2="241" gradientUnits="userSpaceOnUse">
<stop stop-color="#EEF2F8"/>
<stop offset="1" stop-color="#EEF2F8" stop-opacity="0"/>
</linearGradient>
<linearGradient id="paint4_linear_48_1749" x1="70.5361" y1="69" x2="111.165" y2="71.3843" gradientUnits="userSpaceOnUse">
<stop stop-color="#246CDA"/>
<stop offset="1" stop-color="#609FFF"/>
</linearGradient>
<linearGradient id="paint5_linear_48_1749" x1="78.4974" y1="71.5" x2="391.718" y2="190.905" gradientUnits="userSpaceOnUse">
<stop stop-color="#A953FF"/>
<stop offset="0.43015" stop-color="#718DEE"/>
<stop offset="1" stop-color="#2E6FEF"/>
</linearGradient>
<linearGradient id="paint6_linear_48_1749" x1="106.052" y1="261" x2="128.954" y2="261.834" gradientUnits="userSpaceOnUse">
<stop stop-color="#246CDA"/>
<stop offset="1" stop-color="#609FFF"/>
</linearGradient>
<linearGradient id="paint7_linear_48_1749" x1="247.536" y1="408" x2="288.165" y2="410.384" gradientUnits="userSpaceOnUse">
<stop stop-color="#246CDA"/>
<stop offset="1" stop-color="#609FFF"/>
</linearGradient>
<linearGradient id="paint8_linear_48_1749" x1="249.466" y1="397" x2="643.934" y2="483.668" gradientUnits="userSpaceOnUse">
<stop stop-color="#A953FF"/>
<stop offset="0.43015" stop-color="#718DEE"/>
<stop offset="1" stop-color="#2E6FEF"/>
</linearGradient>
<linearGradient id="paint9_linear_48_1749" x1="585.052" y1="223" x2="607.954" y2="223.834" gradientUnits="userSpaceOnUse">
<stop stop-color="#246CDA"/>
<stop offset="1" stop-color="#609FFF"/>
</linearGradient>
</defs>
</svg>
