<svg width="33" height="33" viewBox="0 0 33 33" fill="none" xmlns="http://www.w3.org/2000/svg">
<path fill-rule="evenodd" clip-rule="evenodd" d="M17.4545 31.9091C25.8894 31.9091 32.7272 25.0713 32.7272 16.6364C32.7272 8.20148 25.8894 1.36365 17.4545 1.36365C9.0196 1.36365 2.18176 8.20148 2.18176 16.6364C2.18176 19.3755 2.90285 21.9462 4.16555 24.1691L2.18176 31.9091L10.1616 30.0587C12.3287 31.2387 14.8133 31.9091 17.4545 31.9091ZM17.4545 29.5595C24.5917 29.5595 30.3776 23.7736 30.3776 16.6364C30.3776 9.49916 24.5917 3.7133 17.4545 3.7133C10.3173 3.7133 4.53141 9.49916 4.53141 16.6364C4.53141 19.3921 5.39395 21.9463 6.86377 24.0439L5.70624 28.3846L10.1235 27.2803C12.2065 28.7177 14.7322 29.5595 17.4545 29.5595Z" fill="#BFC8D0"/>
<path d="M30.5455 15.5454C30.5455 22.7753 24.6845 28.6363 17.4546 28.6363C14.6969 28.6363 12.1384 27.7837 10.0284 26.3276L5.55373 27.4463L6.72629 23.0492C5.23738 20.9244 4.36365 18.3369 4.36365 15.5454C4.36365 8.31553 10.2246 2.45453 17.4546 2.45453C24.6845 2.45453 30.5455 8.31553 30.5455 15.5454Z" fill="url(#paint0_linear_1_13875)"/>
<path fill-rule="evenodd" clip-rule="evenodd" d="M17.4545 30.8182C25.8894 30.8182 32.7272 23.9803 32.7272 15.5454C32.7272 7.11054 25.8894 0.272705 17.4545 0.272705C9.0196 0.272705 2.18176 7.11054 2.18176 15.5454C2.18176 18.2846 2.90285 20.8553 4.16555 23.0781L2.18176 30.8182L10.1616 28.9678C12.3287 30.1477 14.8133 30.8182 17.4545 30.8182ZM17.4545 28.4685C24.5917 28.4685 30.3776 22.6827 30.3776 15.5454C30.3776 8.40821 24.5917 2.62236 17.4545 2.62236C10.3173 2.62236 4.53141 8.40821 4.53141 15.5454C4.53141 18.3011 5.39395 20.8554 6.86377 22.9529L5.70624 27.2937L10.1235 26.1894C12.2065 27.6268 14.7322 28.4685 17.4545 28.4685Z" fill="white"/>
<path d="M13.6364 8.45458C13.2733 7.72522 12.7163 7.78979 12.1535 7.78979C11.1478 7.78979 9.57959 8.99446 9.57959 11.2365C9.57959 13.0739 10.3893 15.0853 13.1176 18.0941C15.7506 20.9978 19.2103 22.5 22.0824 22.4488C24.9546 22.3977 25.5455 19.9261 25.5455 19.0914C25.5455 18.7215 25.3159 18.5369 25.1578 18.4867C24.179 18.017 22.3739 17.1418 21.9631 16.9773C21.5524 16.8129 21.3379 17.0353 21.2046 17.1563C20.8321 17.5113 20.0938 18.5574 19.841 18.7927C19.5882 19.028 19.2113 18.9089 19.0544 18.8199C18.4772 18.5883 16.9123 17.8922 15.6649 16.683C14.1222 15.1875 14.0317 14.673 13.741 14.215C13.5085 13.8486 13.6791 13.6238 13.7643 13.5256C14.0967 13.1421 14.5556 12.55 14.7614 12.2557C14.9673 11.9615 14.8039 11.5147 14.7058 11.2365C14.2842 10.0398 13.9269 9.03806 13.6364 8.45458Z" fill="white"/>
<defs>
<linearGradient id="paint0_linear_1_13875" x1="28.9091" y1="5.72725" x2="4.36365" y2="28.6363" gradientUnits="userSpaceOnUse">
<stop stop-color="#5BD066"/>
<stop offset="1" stop-color="#27B43E"/>
</linearGradient>
</defs>
</svg>
